<?xml version="1.0" encoding="UTF-8"?>
<svg id="Layer_1" data-name="Layer 1" xmlns="http://www.w3.org/2000/svg" viewBox="0 0 256 256">
  <defs>
    <style>
      .cls-1 {
        fill: #fff;
        stroke-width: 1.6px;
      }

      .cls-1, .cls-2, .cls-3, .cls-4 {
        stroke: #fff;
        stroke-miterlimit: 10;
      }

      .cls-5, .cls-2, .cls-3, .cls-4 {
        fill: #be1e2d;
      }

      .cls-2 {
        stroke-width: 2.4px;
      }

      .cls-3 {
        stroke-width: 1.27px;
      }

      .cls-4 {
        stroke-width: 2.38px;
      }

      .cls-6 {
        fill: #231f20;
      }
    </style>
  </defs>
  <g>
    <path class="cls-2" d="M158.1,67.91c-1.32-2.69-5-3.14-7.02-.93-.92,1.01-2.12,2.16-3.63,3.37-4.77,3.79-93.67,70.44-95.47,76.54-1.26,4.28,2.24,5.82,4.45,6.37,.97,.24,1.99,.13,2.89-.3,7.98-3.83,53.01-26.02,85.64-55.04,.06-.05,.12-.1,.18-.15l7.82-6.15c.86-.68,1.43-1.65,1.6-2.73,.75-4.72,2.88-17.89,3.69-19.44,.22-.42,.12-.96-.16-1.54Z"/>
    <path class="cls-4" d="M63.01,13.9c3.95-1.41,19.85,.8,81.17,55.4,.88,.79,.85,2.18-.06,2.92l-11.6,9.44c-.75,.61-1.83,.57-2.53-.09L62.37,17.82c-.38-.36-.6-.87-.6-1.4v-.73c0-.8,.49-1.53,1.25-1.8Z"/>
    <path class="cls-2" d="M160.71,71.63c-2.63,.95-9.84,2.77-11.04-5.1-.02-.15-.03-.3-.03-.45v-3.36c0-.53,.14-1.04,.41-1.5,1.95-3.3,10.34-18.19,13.85-34.84,.02-.09,.03-.18,.04-.27,.16-1.34,1.78-13.26,10.69-17.36,.04-.02,.09-.04,.13-.07,.88-.54,10.97-6.97,13.96,13.78,1.65,11.45,.55,17.43-.32,20.08-.35,1.06-1.14,1.91-2.17,2.35-2.46,1.04-7.38,3.11-8.47,3.51-1.2,.44-12.99,18.03-15.58,22.06-.35,.54-.86,.96-1.47,1.17Z"/>
    <path class="cls-3" d="M145.06,97.84s6.92,5.03,6.92,4.76,4.04-9.43,4.04-9.43l-3.01-1.58-7.95,6.25Z"/>
    <path class="cls-5" d="M61.24,18.13l-.3,1.43c-.05,.22,.02,.44,.19,.6l66.22,63.29c.23,.22,.58,.24,.84,.05l1.77-1.35c.32-.24,.34-.71,.05-.98L62.31,17.79c-.37-.34-.97-.15-1.07,.34Z"/>
    <path class="cls-5" d="M124.46,83.49c-.25-.17-.59-.16-.83,.03-7.24,5.61-72.2,56.39-73.42,59.26-.45,1.05-.73,1.87-.91,2.49-.19,.68,.6,1.19,1.13,.74l23.93-20.19,51.54-40.24c.38-.3,.36-.87-.04-1.14l-1.4-.94Z"/>
    <ellipse class="cls-1" cx="179.44" cy="26" rx="3.23" ry="11.35"/>
    <g>
      <path class="cls-2" d="M181.8,139.53s-9.14,.89-15.25-11.04c-4.46-8.71-4.46-11.16-4.64-11.52-.02-.04-.05-.09-.07-.13l-5.77-8.18c-.13-.19-.33-.32-.56-.36-1.56-.29-7.77-1.73-6.94-6.1,.12-.62,.84-.9,1.37-.55l2.44,1.63c.46,.31,1.08,.13,1.31-.37l3.72-8.25c.19-.43,.02-.93-.4-1.15l-.19-.1c-.52-.28-.64-.98-.22-1.41h0c.16-.17,.38-.26,.61-.27,2.5-.07,17.15-.49,19.6-.53,.22,0,18.61,15.95,18.61,15.95,.1,.09,.18,.19,.23,.32,1.07,2.51,12.12,29.7-13.85,32.06Z"/>
      <ellipse class="cls-1" cx="181.13" cy="118.97" rx="7" ry="13.52" transform="translate(-21.57 42.33) rotate(-12.59)"/>
    </g>
  </g>
  <g>
    <path class="cls-6" d="M40.04,201.65H22.91l-3.06,6.09H11.76l14.75-28.6h9.93l14.79,28.6h-8.13l-3.06-6.09Zm-2.74-5.48l-5.8-11.6-5.84,11.6h11.65Z"/>
    <path class="cls-6" d="M67.29,178.73c11.4,0,17.12,4.33,17.86,12.59h-7.48c-.69-4.62-4.25-6.42-10.38-6.42-7.48,0-10.62,2.66-10.62,8.5s3.19,8.58,10.62,8.58c6.09,0,9.68-1.84,10.38-6.5h7.48c-.74,8.29-6.46,12.67-17.86,12.67-12.59,0-17.98-5.23-17.98-14.75s5.39-14.67,17.98-14.67Z"/>
    <path class="cls-6" d="M105.99,208.15c-12.59,0-17.98-4.78-17.98-14.75v-14.26h7.36v14.26c0,4,1.1,8.58,10.62,8.58s10.62-4.62,10.62-8.58v-14.26h7.36v14.26c0,9.93-5.43,14.75-17.98,14.75Z"/>
    <path class="cls-6" d="M161.76,185.31h-13.89v22.43h-7.36v-22.43h-13.89v-6.17h35.14v6.17Z"/>
    <path class="cls-6" d="M182.4,208.15c-12.59,0-17.98-4.78-17.98-14.75v-14.26h7.36v14.26c0,4,1.1,8.58,10.62,8.58s10.62-4.62,10.62-8.58v-14.26h7.36v14.26c0,9.93-5.43,14.75-17.98,14.75Z"/>
    <path class="cls-6" d="M210.39,197.89c0,3.02,2.45,4.41,11.77,4.41,7.72,0,10.05-.86,10.05-3.11,0-2.37-1.63-2.78-10.91-3.23-12.46-.57-17.41-2.53-17.41-8.95s6.42-8.29,17.12-8.29,17.33,2.7,17.33,9.77h-7.36c0-3.15-3.15-3.92-10.79-3.92-7.23,0-8.95,.69-8.95,2.82s1.72,2.62,10.05,3.11c11.28,.61,18.27,1.23,18.27,8.46,0,7.64-7.23,9.19-17.82,9.19-11.73,0-18.71-2-18.71-10.26h7.36Z"/>
  </g>
  <g>
    <path class="cls-5" d="M14.51,239.15c0,.87-.08,1.5-.24,1.89-.16,.39-.41,.58-.76,.58-.25,0-.38-.13-.38-.38v-20.81c0-.18,.07-.34,.21-.48,.14-.14,.3-.21,.48-.21s.34,.07,.48,.21c.14,.14,.21,.3,.21,.48v8.98c.16-.44,.45-.91,.88-1.41,.42-.5,.96-.98,1.6-1.43,.64-.45,1.37-.82,2.18-1.12,.81-.3,1.69-.45,2.63-.45,1.15,0,2.21,.22,3.18,.65s1.82,1.03,2.53,1.79c.71,.76,1.27,1.64,1.67,2.65,.4,1.01,.6,2.09,.6,3.23s-.2,2.22-.6,3.23c-.4,1.01-.96,1.89-1.67,2.65-.71,.76-1.55,1.35-2.53,1.79s-2.04,.65-3.18,.65c-.85,0-1.66-.12-2.44-.36-.78-.24-1.5-.57-2.15-.98-.65-.41-1.22-.88-1.69-1.41-.47-.53-.81-1.08-1.01-1.65v1.89Zm13.79-5.81c0-.96-.15-1.87-.46-2.73s-.75-1.61-1.33-2.25c-.57-.64-1.26-1.15-2.06-1.51-.8-.37-1.69-.55-2.65-.55s-1.85,.19-2.72,.57c-.87,.38-1.64,.89-2.3,1.53-.67,.64-1.2,1.39-1.6,2.25-.4,.86-.6,1.76-.6,2.7s.19,1.88,.58,2.73c.39,.86,.91,1.61,1.56,2.25,.65,.64,1.42,1.15,2.3,1.51,.88,.37,1.81,.55,2.77,.55s1.85-.18,2.65-.55c.8-.37,1.49-.87,2.06-1.51,.57-.64,1.02-1.39,1.33-2.25,.31-.86,.46-1.77,.46-2.73Z"/>
    <path class="cls-5" d="M52.83,237.26c-.21,.55-.54,1.09-1.01,1.62-.47,.53-1.03,1-1.67,1.41-.64,.41-1.36,.75-2.15,1-.79,.25-1.61,.38-2.46,.38-1.15,0-2.21-.22-3.18-.65s-1.82-1.03-2.53-1.79-1.27-1.64-1.67-2.65c-.4-1.01-.6-2.09-.6-3.23s.2-2.22,.6-3.23c.4-1.01,.96-1.89,1.67-2.65s1.55-1.35,2.53-1.79,2.04-.65,3.18-.65c.94,0,1.82,.15,2.63,.45,.81,.3,1.54,.67,2.18,1.12s1.17,.92,1.6,1.43c.42,.5,.72,.97,.88,1.41v-1.89c0-.87,.08-1.5,.24-1.89,.16-.39,.41-.58,.76-.58,.25,0,.38,.13,.38,.38v15.82c0,.25-.13,.38-.38,.38-.34,0-.6-.19-.76-.58-.16-.39-.24-1.02-.24-1.89v-1.89Zm-13.79-3.92c0,.96,.15,1.88,.46,2.73,.31,.86,.75,1.61,1.32,2.25,.57,.64,1.26,1.15,2.06,1.51,.8,.37,1.69,.55,2.65,.55s1.89-.18,2.77-.55c.88-.37,1.65-.87,2.3-1.51,.65-.64,1.17-1.39,1.57-2.25,.39-.86,.58-1.77,.58-2.73s-.2-1.84-.6-2.7c-.4-.86-.93-1.61-1.6-2.25-.67-.64-1.43-1.15-2.3-1.53-.87-.38-1.78-.57-2.72-.57s-1.85,.18-2.65,.55c-.8,.37-1.49,.87-2.06,1.51-.57,.64-1.01,1.39-1.32,2.25s-.46,1.77-.46,2.73Z"/>
    <path class="cls-5" d="M65.25,229.28c.09-.37,.33-.8,.71-1.31,.38-.5,.87-.97,1.46-1.41,.6-.43,1.29-.81,2.08-1.12s1.65-.46,2.56-.46c.32,0,.63,.03,.93,.09,.3,.06,.55,.12,.76,.19,.44,.14,.64,.42,.62,.85-.05,.21-.14,.37-.29,.49-.15,.11-.33,.16-.53,.14-.3-.02-.57-.09-.81-.21-.24-.11-.53-.17-.88-.17-.89,0-1.74,.19-2.53,.57-.79,.38-1.49,.89-2.1,1.53-.61,.64-1.09,1.39-1.44,2.25-.36,.86-.53,1.76-.53,2.7v7.5c0,.21-.06,.38-.19,.52s-.29,.21-.5,.21-.37-.07-.5-.21c-.13-.14-.19-.31-.19-.52v-15.55c0-.25,.13-.38,.38-.38,.34,0,.6,.2,.76,.58s.24,1.02,.24,1.89v1.82Z"/>
    <path class="cls-5" d="M83.24,239.15c0,.87-.08,1.5-.24,1.89-.16,.39-.41,.58-.76,.58-.25,0-.38-.13-.38-.38v-20.81c0-.18,.07-.34,.21-.48,.14-.14,.3-.21,.48-.21s.34,.07,.48,.21,.21,.3,.21,.48v8.98c.16-.44,.45-.91,.88-1.41,.42-.5,.96-.98,1.6-1.43,.64-.45,1.37-.82,2.18-1.12,.81-.3,1.69-.45,2.63-.45,1.15,0,2.21,.22,3.18,.65s1.82,1.03,2.53,1.79,1.27,1.64,1.67,2.65c.4,1.01,.6,2.09,.6,3.23s-.2,2.22-.6,3.23c-.4,1.01-.96,1.89-1.67,2.65s-1.55,1.35-2.53,1.79-2.04,.65-3.18,.65c-.85,0-1.66-.12-2.44-.36-.78-.24-1.5-.57-2.15-.98-.65-.41-1.22-.88-1.69-1.41-.47-.53-.81-1.08-1.01-1.65v1.89Zm13.79-5.81c0-.96-.15-1.87-.46-2.73s-.75-1.61-1.32-2.25c-.57-.64-1.26-1.15-2.06-1.51-.8-.37-1.69-.55-2.65-.55s-1.85,.19-2.72,.57c-.87,.38-1.64,.89-2.3,1.53-.67,.64-1.2,1.39-1.6,2.25-.4,.86-.6,1.76-.6,2.7s.2,1.88,.58,2.73c.39,.86,.91,1.61,1.57,2.25,.65,.64,1.42,1.15,2.3,1.51,.88,.37,1.81,.55,2.77,.55s1.85-.18,2.65-.55c.8-.37,1.49-.87,2.06-1.51,.57-.64,1.01-1.39,1.32-2.25,.31-.86,.46-1.77,.46-2.73Z"/>
    <path class="cls-5" d="M114.88,241.63c-1.15,0-2.22-.22-3.23-.65s-1.89-1.03-2.65-1.77-1.35-1.62-1.79-2.63c-.44-1.01-.65-2.09-.65-3.23,0-1.28,.23-2.44,.69-3.47,.46-1.03,1.08-1.91,1.87-2.63,.79-.72,1.71-1.28,2.75-1.67s2.13-.58,3.28-.58,2.21,.21,3.19,.64c.98,.42,1.84,1.01,2.56,1.75,.72,.75,1.29,1.62,1.7,2.63,.41,1.01,.62,2.1,.62,3.27,0,.18-.07,.34-.21,.48-.14,.14-.33,.21-.58,.21h-14.41c.07,.89,.3,1.73,.69,2.51s.89,1.46,1.5,2.03,1.31,1.03,2.12,1.36c.8,.33,1.66,.5,2.58,.5,.85,0,1.69-.16,2.51-.46,.83-.31,1.54-.76,2.13-1.36,.14-.14,.31-.21,.52-.21s.38,.07,.52,.21c.11,.14,.18,.3,.21,.5,.02,.19-.05,.37-.21,.53-.28,.23-.6,.46-.98,.71-.38,.24-.8,.46-1.27,.67-.47,.21-.99,.37-1.57,.5-.57,.13-1.19,.19-1.86,.19Zm.28-15.38c-.92,0-1.79,.17-2.61,.5-.83,.33-1.56,.79-2.2,1.37-.64,.58-1.16,1.26-1.57,2.04-.4,.78-.65,1.63-.74,2.52h13.79c-.07-.9-.28-1.74-.64-2.52-.36-.78-.83-1.46-1.41-2.04-.58-.58-1.27-1.03-2.06-1.37-.79-.33-1.65-.5-2.56-.5Z"/>
    <path class="cls-5" d="M133.28,229.28c.09-.37,.33-.8,.71-1.31,.38-.5,.87-.97,1.46-1.41,.6-.43,1.29-.81,2.08-1.12s1.65-.46,2.56-.46c.32,0,.63,.03,.93,.09,.3,.06,.55,.12,.76,.19,.44,.14,.64,.42,.62,.85-.05,.21-.14,.37-.29,.49-.15,.11-.33,.16-.53,.14-.3-.02-.57-.09-.81-.21-.24-.11-.53-.17-.88-.17-.89,0-1.74,.19-2.53,.57-.79,.38-1.49,.89-2.1,1.53-.61,.64-1.09,1.39-1.44,2.25-.36,.86-.53,1.76-.53,2.7v7.5c0,.21-.06,.38-.19,.52s-.29,.21-.5,.21-.37-.07-.5-.21c-.13-.14-.19-.31-.19-.52v-15.55c0-.25,.13-.38,.38-.38,.34,0,.6,.2,.76,.58s.24,1.02,.24,1.89v1.82Z"/>
    <path class="cls-5" d="M156.28,241.63c-.73,0-1.53-.11-2.4-.33-.87-.22-1.68-.53-2.42-.93-.74-.4-1.36-.89-1.85-1.48s-.74-1.24-.74-1.98c0-.27,.08-.47,.23-.58,.16-.12,.29-.17,.4-.17,.25,0,.43,.07,.55,.22,.12,.15,.18,.32,.18,.5,0,.34,.16,.71,.47,1.1,.31,.39,.74,.75,1.28,1.08,.54,.33,1.18,.61,1.92,.84,.74,.23,1.53,.34,2.38,.34,1.54,.02,2.72-.14,3.55-.48s1.44-.72,1.83-1.13c.39-.41,.62-.8,.69-1.15,.07-.36,.1-.54,.1-.57,0-.99-.54-1.75-1.62-2.29-1.08-.54-2.6-.87-4.55-.98-1.5-.07-2.67-.26-3.52-.58-.85-.32-1.5-.7-1.95-1.13s-.73-.88-.84-1.34c-.12-.46-.17-.88-.17-1.27,0-.5,.12-1.01,.36-1.53,.24-.52,.62-.98,1.14-1.39,.52-.41,1.19-.75,2.03-1.01,.84-.26,1.84-.4,3.01-.4,.89,0,1.76,.1,2.6,.31s1.58,.5,2.22,.88c.64,.38,1.16,.83,1.57,1.36,.4,.53,.6,1.12,.6,1.79,0,.18-.03,.32-.1,.41s-.15,.15-.24,.19c-.09,.03-.21,.06-.37,.09-.31,0-.5-.1-.57-.31-.07-.21-.1-.33-.1-.38,0-.34-.14-.69-.42-1.05-.28-.36-.66-.67-1.16-.95s-1.08-.5-1.75-.69-1.4-.28-2.18-.28c-1.11,0-2,.12-2.68,.35-.68,.23-1.21,.51-1.59,.83-.38,.32-.64,.65-.78,.99-.14,.33-.21,.6-.21,.81,0,.37,.06,.71,.19,1.04,.13,.32,.37,.61,.74,.87,.37,.25,.88,.47,1.55,.66s1.53,.31,2.59,.38c.94,.07,1.87,.19,2.78,.36,.91,.17,1.72,.43,2.43,.77,.71,.34,1.29,.8,1.72,1.37,.44,.57,.66,1.29,.66,2.16s-.22,1.57-.65,2.16c-.43,.59-1,1.08-1.7,1.46-.7,.38-1.5,.65-2.4,.82-.9,.17-1.84,.26-2.8,.26Z"/>
    <path class="cls-5" d="M187.7,233.34c0-.96-.16-1.87-.48-2.73-.32-.86-.77-1.61-1.36-2.25-.58-.64-1.29-1.15-2.1-1.51-.81-.37-1.7-.55-2.67-.55s-1.85,.19-2.73,.58c-.88,.39-1.66,.91-2.34,1.57-.68,.65-1.22,1.41-1.62,2.27-.4,.86-.6,1.76-.6,2.7v7.5c0,.21-.06,.38-.19,.52s-.29,.21-.5,.21-.37-.07-.5-.21c-.13-.14-.19-.31-.19-.52v-20.47c0-.18,.07-.34,.21-.48,.14-.14,.3-.21,.48-.21s.34,.07,.48,.21,.21,.3,.21,.48v8.98c.16-.44,.45-.91,.88-1.41,.42-.5,.96-.98,1.6-1.43,.64-.45,1.37-.82,2.18-1.12,.81-.3,1.69-.45,2.63-.45,1.15,0,2.21,.22,3.18,.65s1.82,1.03,2.53,1.77,1.27,1.62,1.67,2.63c.4,1.01,.6,2.09,.6,3.23v7.6c0,.21-.06,.38-.19,.52s-.29,.21-.5,.21-.37-.07-.5-.21c-.13-.14-.19-.31-.19-.52v-7.57Z"/>
    <path class="cls-5" d="M197.16,233.3c0-1.15,.22-2.22,.65-3.23,.44-1.01,1.03-1.89,1.79-2.65s1.64-1.35,2.65-1.79c1.01-.43,2.09-.65,3.23-.65s2.22,.22,3.23,.65c1.01,.44,1.89,1.03,2.65,1.79s1.35,1.64,1.79,2.65c.44,1.01,.65,2.09,.65,3.23s-.22,2.22-.65,3.23c-.44,1.01-1.03,1.89-1.79,2.65s-1.64,1.35-2.65,1.79-2.09,.65-3.23,.65-2.22-.22-3.23-.65-1.89-1.03-2.65-1.79-1.35-1.64-1.79-2.65c-.44-1.01-.65-2.09-.65-3.23Zm1.45,0c0,.96,.18,1.88,.53,2.73,.35,.86,.84,1.61,1.46,2.25,.62,.64,1.35,1.15,2.18,1.51,.84,.37,1.74,.55,2.7,.55s1.86-.18,2.7-.55c.84-.37,1.57-.87,2.18-1.51,.62-.64,1.11-1.39,1.46-2.25,.36-.86,.53-1.77,.53-2.73s-.18-1.88-.53-2.73c-.36-.86-.84-1.61-1.46-2.25s-1.35-1.15-2.18-1.51c-.84-.37-1.74-.55-2.7-.55s-1.86,.18-2.7,.55c-.84,.37-1.56,.87-2.18,1.51s-1.11,1.39-1.46,2.25c-.36,.86-.53,1.77-.53,2.73Z"/>
    <path class="cls-5" d="M223.1,229.38c.21-.57,.54-1.12,1.01-1.65,.47-.53,1.03-1,1.69-1.41,.65-.41,1.37-.74,2.15-.98,.78-.24,1.59-.36,2.44-.36,1.15,0,2.21,.22,3.18,.65,.97,.44,1.82,1.03,2.53,1.79s1.27,1.64,1.67,2.65c.4,1.01,.6,2.09,.6,3.23s-.2,2.22-.6,3.23c-.4,1.01-.96,1.89-1.67,2.65s-1.55,1.35-2.53,1.79-2.04,.65-3.18,.65c-.94,0-1.82-.15-2.63-.45-.81-.3-1.54-.67-2.18-1.12-.64-.45-1.18-.92-1.6-1.43-.42-.5-.72-.97-.88-1.41v8.98c0,.18-.07,.34-.21,.48-.14,.14-.3,.21-.48,.21s-.34-.07-.48-.21-.21-.3-.21-.48v-20.81c0-.25,.13-.38,.38-.38,.34,0,.6,.2,.76,.58,.16,.39,.24,1.02,.24,1.89v1.89Zm13.79,3.92c0-.96-.15-1.88-.46-2.73-.31-.86-.75-1.61-1.32-2.25-.57-.64-1.26-1.15-2.06-1.51-.8-.37-1.69-.55-2.65-.55s-1.89,.18-2.77,.55c-.88,.37-1.65,.87-2.3,1.51-.65,.64-1.18,1.39-1.57,2.25-.39,.86-.58,1.77-.58,2.73s.2,1.84,.6,2.7c.4,.86,.93,1.61,1.6,2.25,.66,.64,1.43,1.15,2.3,1.53,.87,.38,1.78,.57,2.72,.57s1.85-.18,2.65-.55c.8-.37,1.49-.87,2.06-1.51,.57-.64,1.01-1.39,1.32-2.25,.31-.86,.46-1.77,.46-2.73Z"/>
  </g>
</svg>