<?xml version="1.0" encoding="UTF-8"?>
<svg id="Layer_1" data-name="Layer 1" xmlns="http://www.w3.org/2000/svg" viewBox="0 0 512 512">
  <defs>
    <style>
      .cls-1 {
        stroke-width: 4.68px;
      }

      .cls-1, .cls-2, .cls-3, .cls-4 {
        fill: #d7b144;
      }

      .cls-1, .cls-3, .cls-5, .cls-4 {
        stroke: #fff;
        stroke-miterlimit: 10;
      }

      .cls-3 {
        stroke-width: 4.7px;
      }

      .cls-5 {
        fill: #fff;
        stroke-width: 3.14px;
      }

      .cls-4 {
        stroke-width: 2.5px;
      }

      .cls-6 {
        fill: #231f20;
      }
    </style>
  </defs>
  <g>
    <path class="cls-3" d="M315.09,138.03c-2.59-5.27-9.82-6.16-13.78-1.82-1.81,1.99-4.15,4.25-7.12,6.61-9.37,7.45-183.89,138.27-187.42,150.27-2.47,8.39,4.39,11.43,8.73,12.5,1.91,.47,3.91,.25,5.68-.6,15.67-7.51,104.06-51.09,168.13-108.04,.12-.1,.24-.21,.36-.3l15.35-12.07c1.69-1.33,2.81-3.24,3.14-5.35,1.47-9.27,5.66-35.13,7.25-38.16,.43-.82,.24-1.88-.32-3.02Z"/>
    <path class="cls-1" d="M128.41,32c7.75-2.77,38.97,1.58,159.35,108.76,1.73,1.54,1.68,4.27-.12,5.74l-22.77,18.54c-1.47,1.19-3.59,1.12-4.97-.18L127.15,39.71c-.75-.71-1.18-1.7-1.18-2.74v-1.44c0-1.57,.96-3,2.45-3.53Z"/>
    <path class="cls-3" d="M320.22,145.34c-5.17,1.86-19.32,5.45-21.68-10.02-.04-.29-.06-.59-.06-.88v-6.6c0-1.03,.27-2.04,.8-2.94,3.82-6.48,20.31-35.71,27.18-68.4,.04-.18,.07-.35,.09-.53,.31-2.64,3.49-26.03,20.99-34.08,.09-.04,.17-.08,.25-.13,1.74-1.06,21.53-13.68,27.41,27.05,3.24,22.47,1.09,34.22-.62,39.42-.68,2.08-2.24,3.75-4.26,4.61-4.83,2.04-14.49,6.1-16.63,6.89-2.36,.87-25.49,35.4-30.58,43.31-.68,1.06-1.69,1.88-2.88,2.3Z"/>
    <path class="cls-4" d="M289.48,196.78s13.58,9.88,13.58,9.35,7.94-18.52,7.94-18.52l-5.91-3.11-15.61,12.28Z"/>
    <path class="cls-2" d="M124.94,40.3l-.59,2.8c-.09,.43,.05,.87,.36,1.17l130,124.25c.45,.43,1.15,.47,1.64,.09l3.47-2.64c.62-.47,.67-1.4,.1-1.93L127.05,39.64c-.72-.67-1.9-.3-2.1,.67Z"/>
    <path class="cls-2" d="M249.06,168.62c-.5-.34-1.15-.32-1.62,.05-14.21,11.02-141.74,110.71-144.13,116.34-.88,2.07-1.44,3.66-1.8,4.89-.38,1.33,1.17,2.34,2.23,1.45l46.97-39.64,101.17-79c.74-.58,.7-1.72-.08-2.24l-2.75-1.85Z"/>
    <ellipse class="cls-5" cx="356.98" cy="55.76" rx="6.35" ry="22.28"/>
    <path class="cls-3" d="M361.61,278.63c-.1,0-17.95,1.76-29.95-21.68-8.75-17.11-8.76-21.9-9.1-22.61-.04-.09-.09-.17-.15-.25l-11.32-16.05c-.26-.37-.66-.63-1.1-.71-3.06-.57-15.26-3.4-13.62-11.98,.23-1.21,1.66-1.76,2.68-1.08l4.8,3.21c.9,.6,2.12,.25,2.57-.73l7.3-16.2c.38-.84,.04-1.83-.78-2.26l-.37-.19c-1.03-.54-1.25-1.92-.44-2.76h0c.32-.33,.75-.52,1.2-.53,4.9-.14,33.66-.95,38.47-1.03,.43,0,36.54,31.31,36.54,31.31,.2,.17,.35,.38,.45,.62,2.11,4.92,23.78,58.31-27.18,62.94Z"/>
    <ellipse class="cls-5" cx="360.3" cy="238.27" rx="13.75" ry="26.54" transform="translate(-43.27 84.25) rotate(-12.59)"/>
  </g>
  <g>
    <path class="cls-6" d="M83.31,400.59H49.7l-6.02,11.95h-15.88l28.96-56.15h19.49l29.04,56.15h-15.96l-6.02-11.95Zm-5.37-10.75l-11.39-22.78-11.47,22.78h22.86Z"/>
    <path class="cls-6" d="M136.82,355.59c22.38,0,33.61,8.5,35.05,24.71h-14.68c-1.36-9.06-8.34-12.59-20.37-12.59-14.68,0-20.86,5.21-20.86,16.69s6.26,16.84,20.86,16.84c11.95,0,19.01-3.61,20.37-12.75h14.68c-1.44,16.28-12.67,24.87-35.05,24.87-24.71,0-35.29-10.27-35.29-28.96s10.59-28.8,35.29-28.8Z"/>
    <path class="cls-6" d="M212.78,413.35c-24.71,0-35.29-9.38-35.29-28.96v-28h14.44v28c0,7.86,2.17,16.84,20.86,16.84s20.86-9.06,20.86-16.84v-28h14.44v28c0,19.49-10.67,28.96-35.29,28.96Z"/>
    <path class="cls-6" d="M322.28,368.51h-27.27v44.04h-14.44v-44.04h-27.27v-12.11h68.99v12.11Z"/>
    <path class="cls-6" d="M362.79,413.35c-24.71,0-35.29-9.38-35.29-28.96v-28h14.44v28c0,7.86,2.17,16.84,20.86,16.84s20.86-9.06,20.86-16.84v-28h14.44v28c0,19.49-10.67,28.96-35.29,28.96Z"/>
    <path class="cls-6" d="M417.74,393.21c0,5.94,4.81,8.66,23.1,8.66,15.16,0,19.73-1.68,19.73-6.1,0-4.65-3.21-5.46-21.42-6.34-24.46-1.12-34.17-4.97-34.17-17.57s12.59-16.28,33.61-16.28,34.01,5.29,34.01,19.17h-14.44c0-6.18-6.18-7.7-21.18-7.7-14.2,0-17.57,1.36-17.57,5.54s3.37,5.13,19.73,6.1c22.14,1.2,35.86,2.41,35.86,16.6,0,15-14.2,18.05-34.97,18.05-23.02,0-36.74-3.93-36.74-20.13h14.44Z"/>
  </g>
  <g>
    <path class="cls-2" d="M33.2,474.2c0,1.71-.16,2.95-.47,3.71-.32,.77-.81,1.15-1.49,1.15-.5,0-.74-.25-.74-.74v-40.85c0-.36,.13-.67,.41-.95,.27-.27,.58-.41,.95-.41s.68,.14,.95,.41c.27,.27,.41,.59,.41,.95v17.62c.31-.85,.89-1.78,1.72-2.77,.83-.99,1.88-1.92,3.14-2.8,1.26-.88,2.69-1.61,4.29-2.19,1.6-.58,3.32-.88,5.17-.88,2.25,0,4.33,.43,6.25,1.28,1.91,.86,3.57,2.03,4.96,3.51,1.39,1.49,2.49,3.22,3.27,5.2,.79,1.98,1.18,4.1,1.18,6.35s-.39,4.37-1.18,6.35c-.79,1.98-1.88,3.71-3.27,5.2-1.4,1.49-3.05,2.66-4.96,3.51-1.91,.86-4,1.28-6.25,1.28-1.67,0-3.26-.24-4.79-.71-1.53-.47-2.94-1.11-4.22-1.92-1.28-.81-2.39-1.73-3.31-2.77-.92-1.04-1.59-2.12-1.99-3.24v3.71Zm27.08-11.41c0-1.89-.3-3.68-.91-5.37-.61-1.69-1.48-3.16-2.6-4.42-1.13-1.26-2.48-2.25-4.05-2.97-1.58-.72-3.31-1.08-5.2-1.08s-3.62,.37-5.33,1.11c-1.71,.74-3.22,1.75-4.52,3-1.31,1.26-2.35,2.74-3.14,4.42-.79,1.69-1.18,3.46-1.18,5.3s.38,3.68,1.15,5.37c.77,1.69,1.79,3.16,3.07,4.42,1.28,1.26,2.79,2.25,4.52,2.97,1.73,.72,3.55,1.08,5.44,1.08s3.62-.36,5.2-1.08c1.58-.72,2.93-1.71,4.05-2.97,1.12-1.26,1.99-2.74,2.6-4.42,.61-1.69,.91-3.48,.91-5.37Z"/>
    <path class="cls-2" d="M108.43,470.49c-.41,1.08-1.07,2.14-1.99,3.17-.92,1.04-2.02,1.96-3.27,2.77-1.26,.81-2.67,1.46-4.22,1.96-1.55,.5-3.16,.74-4.83,.74-2.25,0-4.33-.43-6.25-1.28-1.91-.85-3.57-2.03-4.96-3.51-1.4-1.49-2.49-3.22-3.28-5.2-.79-1.98-1.18-4.1-1.18-6.35s.39-4.37,1.18-6.35c.79-1.98,1.88-3.71,3.28-5.2,1.39-1.49,3.05-2.66,4.96-3.51,1.91-.85,3.99-1.28,6.25-1.28,1.85,0,3.57,.29,5.17,.88,1.6,.58,3.03,1.32,4.29,2.19,1.26,.88,2.31,1.81,3.14,2.8,.83,.99,1.41,1.91,1.72,2.77v-3.71c0-1.71,.16-2.95,.47-3.71,.31-.77,.81-1.15,1.49-1.15,.5,0,.74,.25,.74,.74v31.06c0,.5-.25,.74-.74,.74-.68,0-1.17-.38-1.49-1.15-.32-.76-.47-2-.47-3.71v-3.71Zm-27.08-7.7c0,1.89,.3,3.68,.91,5.37,.61,1.69,1.47,3.16,2.6,4.42,1.12,1.26,2.48,2.25,4.05,2.97,1.58,.72,3.31,1.08,5.2,1.08s3.7-.36,5.44-1.08c1.73-.72,3.24-1.71,4.52-2.97,1.28-1.26,2.31-2.74,3.07-4.42,.77-1.69,1.15-3.48,1.15-5.37s-.39-3.61-1.18-5.3c-.79-1.69-1.83-3.16-3.14-4.42-1.31-1.26-2.81-2.26-4.52-3-1.71-.74-3.49-1.11-5.33-1.11s-3.62,.36-5.2,1.08c-1.58,.72-2.93,1.71-4.05,2.97-1.13,1.26-1.99,2.74-2.6,4.42-.61,1.69-.91,3.48-.91,5.37Z"/>
    <path class="cls-2" d="M132.81,454.82c.18-.72,.64-1.58,1.38-2.57,.74-.99,1.7-1.91,2.87-2.77,1.17-.86,2.53-1.59,4.09-2.2,1.55-.61,3.23-.91,5.03-.91,.63,0,1.24,.06,1.82,.17,.58,.12,1.08,.24,1.49,.38,.85,.28,1.26,.83,1.22,1.66-.09,.41-.28,.73-.57,.96-.29,.23-.64,.32-1.05,.27-.59-.04-1.11-.18-1.59-.41-.47-.22-1.05-.34-1.72-.34-1.76,0-3.41,.37-4.96,1.11-1.55,.74-2.93,1.75-4.12,3-1.19,1.26-2.14,2.73-2.84,4.42-.7,1.69-1.05,3.46-1.05,5.3v14.72c0,.41-.12,.74-.37,1.01-.25,.27-.57,.41-.98,.41s-.73-.13-.98-.41c-.25-.27-.37-.61-.37-1.01v-30.52c0-.5,.25-.74,.74-.74,.68,0,1.17,.38,1.49,1.15,.31,.77,.47,2,.47,3.71v3.58Z"/>
    <path class="cls-2" d="M168.12,474.2c0,1.71-.16,2.95-.47,3.71-.32,.77-.81,1.15-1.49,1.15-.5,0-.74-.25-.74-.74v-40.85c0-.36,.13-.67,.41-.95,.27-.27,.58-.41,.95-.41s.68,.14,.95,.41c.27,.27,.41,.59,.41,.95v17.62c.31-.85,.89-1.78,1.72-2.77,.83-.99,1.88-1.92,3.14-2.8,1.26-.88,2.69-1.61,4.29-2.19,1.6-.58,3.32-.88,5.17-.88,2.25,0,4.33,.43,6.25,1.28,1.91,.86,3.57,2.03,4.96,3.51,1.39,1.49,2.49,3.22,3.27,5.2,.79,1.98,1.18,4.1,1.18,6.35s-.39,4.37-1.18,6.35c-.79,1.98-1.88,3.71-3.27,5.2-1.4,1.49-3.05,2.66-4.96,3.51-1.91,.86-4,1.28-6.25,1.28-1.67,0-3.26-.24-4.79-.71-1.53-.47-2.94-1.11-4.22-1.92-1.28-.81-2.39-1.73-3.31-2.77-.92-1.04-1.59-2.12-1.99-3.24v3.71Zm27.08-11.41c0-1.89-.3-3.68-.91-5.37-.61-1.69-1.48-3.16-2.6-4.42-1.13-1.26-2.48-2.25-4.05-2.97-1.58-.72-3.31-1.08-5.2-1.08s-3.62,.37-5.33,1.11c-1.71,.74-3.22,1.75-4.52,3-1.31,1.26-2.35,2.74-3.14,4.42-.79,1.69-1.18,3.46-1.18,5.3s.38,3.68,1.15,5.37c.77,1.69,1.79,3.16,3.07,4.42,1.28,1.26,2.79,2.25,4.52,2.97,1.73,.72,3.55,1.08,5.44,1.08s3.62-.36,5.2-1.08c1.58-.72,2.93-1.71,4.05-2.97,1.12-1.26,1.99-2.74,2.6-4.42,.61-1.69,.91-3.48,.91-5.37Z"/>
    <path class="cls-2" d="M230.25,479.06c-2.25,0-4.37-.43-6.35-1.28-1.98-.85-3.71-2.01-5.2-3.48-1.49-1.46-2.66-3.18-3.51-5.17-.86-1.98-1.28-4.1-1.28-6.35,0-2.52,.45-4.79,1.35-6.82,.9-2.03,2.12-3.75,3.67-5.17,1.55-1.42,3.35-2.51,5.39-3.28,2.04-.76,4.19-1.15,6.43-1.15s4.33,.42,6.27,1.25c1.93,.83,3.61,1.98,5.02,3.44,1.41,1.46,2.53,3.18,3.33,5.17,.81,1.98,1.21,4.12,1.21,6.42,0,.36-.13,.68-.4,.95-.27,.27-.65,.41-1.15,.41h-28.3c.13,1.76,.58,3.4,1.35,4.93,.76,1.53,1.74,2.86,2.94,3.98,1.19,1.12,2.58,2.01,4.15,2.67,1.58,.65,3.26,.98,5.06,.98,1.67,0,3.31-.3,4.93-.91,1.62-.61,3.02-1.5,4.19-2.67,.27-.27,.61-.41,1.01-.41s.74,.13,1.01,.41c.22,.27,.36,.6,.41,.98,.04,.38-.09,.73-.41,1.05-.54,.45-1.18,.91-1.92,1.38-.74,.47-1.58,.91-2.5,1.32-.92,.41-1.95,.73-3.07,.98-1.13,.25-2.34,.37-3.65,.37Zm.54-30.18c-1.8,0-3.51,.33-5.13,.98-1.62,.66-3.06,1.55-4.32,2.68-1.26,1.13-2.29,2.47-3.07,4-.79,1.54-1.27,3.19-1.45,4.96h27.08c-.13-1.76-.55-3.42-1.25-4.96-.7-1.54-1.62-2.87-2.77-4-1.15-1.13-2.5-2.03-4.05-2.68-1.55-.66-3.23-.98-5.03-.98Z"/>
    <path class="cls-2" d="M266.37,454.82c.18-.72,.64-1.58,1.38-2.57,.74-.99,1.7-1.91,2.87-2.77,1.17-.86,2.53-1.59,4.08-2.2,1.55-.61,3.23-.91,5.03-.91,.63,0,1.24,.06,1.82,.17,.58,.12,1.08,.24,1.49,.38,.85,.28,1.26,.83,1.22,1.66-.09,.41-.28,.73-.57,.96-.29,.23-.64,.32-1.05,.27-.58-.04-1.11-.18-1.59-.41-.47-.22-1.05-.34-1.72-.34-1.76,0-3.41,.37-4.96,1.11-1.55,.74-2.93,1.75-4.12,3-1.19,1.26-2.14,2.73-2.84,4.42-.7,1.69-1.05,3.46-1.05,5.3v14.72c0,.41-.12,.74-.37,1.01-.25,.27-.57,.41-.98,.41s-.73-.13-.98-.41c-.25-.27-.37-.61-.37-1.01v-30.52c0-.5,.25-.74,.74-.74,.67,0,1.17,.38,1.49,1.15,.31,.77,.47,2,.47,3.71v3.58Z"/>
    <path class="cls-2" d="M311.51,479.06c-1.44,0-3.01-.21-4.72-.64-1.71-.43-3.29-1.04-4.75-1.82-1.46-.79-2.67-1.76-3.64-2.9-.97-1.15-1.45-2.44-1.45-3.88,0-.54,.15-.92,.46-1.15,.31-.22,.57-.34,.79-.34,.48,0,.84,.15,1.09,.44,.24,.29,.36,.62,.36,.98,0,.67,.3,1.4,.91,2.16,.61,.77,1.44,1.48,2.51,2.13,1.06,.65,2.31,1.2,3.76,1.65,1.44,.45,3,.67,4.67,.67,3.02,.05,5.35-.27,6.97-.95,1.62-.67,2.82-1.42,3.59-2.23s1.22-1.56,1.35-2.26c.14-.7,.2-1.07,.2-1.11,0-1.94-1.06-3.43-3.18-4.49s-5.1-1.7-8.94-1.92c-2.94-.13-5.24-.52-6.91-1.15-1.67-.63-2.95-1.37-3.83-2.23s-1.43-1.73-1.66-2.63c-.23-.9-.34-1.73-.34-2.5,0-.99,.24-1.99,.71-3s1.21-1.92,2.23-2.73c1.01-.81,2.34-1.47,3.98-1.99,1.64-.52,3.61-.78,5.91-.78,1.75,0,3.45,.2,5.1,.61,1.64,.41,3.09,.98,4.36,1.72,1.26,.74,2.28,1.63,3.07,2.67,.79,1.04,1.18,2.21,1.18,3.51,0,.36-.07,.63-.2,.81-.13,.18-.29,.3-.46,.37-.17,.07-.42,.12-.72,.17-.62,0-.99-.2-1.12-.61-.13-.41-.2-.65-.2-.74,0-.67-.27-1.36-.82-2.06-.54-.7-1.3-1.32-2.28-1.86-.97-.54-2.12-.99-3.43-1.35s-2.74-.54-4.28-.54c-2.18,0-3.93,.23-5.27,.68-1.34,.45-2.38,1-3.13,1.63-.75,.63-1.26,1.28-1.53,1.94-.27,.66-.41,1.19-.41,1.6,0,.72,.12,1.4,.37,2.04,.25,.63,.73,1.2,1.46,1.7s1.74,.93,3.05,1.29c1.31,.36,3,.61,5.08,.75,1.85,.13,3.67,.37,5.45,.71s3.37,.84,4.77,1.51c1.4,.67,2.53,1.57,3.38,2.69,.86,1.12,1.29,2.54,1.29,4.24s-.43,3.07-1.28,4.24c-.85,1.17-1.97,2.12-3.33,2.86-1.37,.74-2.94,1.28-4.72,1.61-1.77,.34-3.6,.5-5.49,.5Z"/>
    <path class="cls-2" d="M373.2,462.79c0-1.89-.32-3.68-.95-5.37-.63-1.69-1.52-3.16-2.67-4.42-1.15-1.26-2.52-2.25-4.12-2.97-1.6-.72-3.34-1.08-5.23-1.08s-3.64,.38-5.37,1.15c-1.73,.77-3.26,1.79-4.59,3.07-1.33,1.28-2.39,2.77-3.17,4.46-.79,1.69-1.18,3.46-1.18,5.3v14.72c0,.41-.12,.74-.37,1.01-.25,.27-.57,.41-.98,.41s-.73-.13-.98-.41c-.25-.27-.37-.61-.37-1.01v-40.18c0-.36,.13-.67,.41-.95s.58-.41,.95-.41,.67,.14,.95,.41c.27,.27,.41,.59,.41,.95v17.62c.31-.85,.89-1.78,1.72-2.77,.83-.99,1.88-1.92,3.14-2.8,1.26-.88,2.69-1.61,4.29-2.19,1.6-.58,3.32-.88,5.17-.88,2.25,0,4.33,.43,6.25,1.28,1.91,.86,3.57,2.01,4.96,3.48s2.49,3.19,3.28,5.17c.79,1.98,1.18,4.1,1.18,6.35v14.92c0,.41-.12,.74-.37,1.01-.25,.27-.57,.41-.98,.41s-.73-.13-.98-.41c-.25-.27-.37-.61-.37-1.01v-14.86Z"/>
    <path class="cls-2" d="M391.77,462.72c0-2.25,.43-4.37,1.28-6.35,.85-1.98,2.03-3.71,3.51-5.2,1.49-1.49,3.22-2.66,5.2-3.51,1.98-.86,4.1-1.28,6.35-1.28s4.37,.43,6.35,1.28c1.98,.86,3.71,2.03,5.2,3.51s2.66,3.22,3.51,5.2c.85,1.98,1.28,4.1,1.28,6.35s-.43,4.37-1.28,6.35c-.86,1.98-2.03,3.71-3.51,5.2-1.49,1.49-3.22,2.66-5.2,3.51-1.98,.86-4.1,1.28-6.35,1.28s-4.37-.43-6.35-1.28c-1.98-.85-3.71-2.03-5.2-3.51-1.49-1.49-2.66-3.22-3.51-5.2-.86-1.98-1.28-4.1-1.28-6.35Zm2.84,0c0,1.89,.35,3.68,1.05,5.37,.7,1.69,1.65,3.16,2.87,4.42,1.21,1.26,2.64,2.25,4.29,2.97,1.64,.72,3.41,1.08,5.3,1.08s3.66-.36,5.3-1.08c1.64-.72,3.07-1.71,4.29-2.97,1.21-1.26,2.17-2.74,2.87-4.42,.7-1.69,1.05-3.48,1.05-5.37s-.35-3.68-1.05-5.37c-.7-1.69-1.65-3.16-2.87-4.42-1.22-1.26-2.65-2.25-4.29-2.97-1.64-.72-3.41-1.08-5.3-1.08s-3.66,.36-5.3,1.08c-1.64,.72-3.07,1.71-4.29,2.97-1.22,1.26-2.17,2.74-2.87,4.42-.7,1.69-1.05,3.48-1.05,5.37Z"/>
    <path class="cls-2" d="M442.68,455.02c.41-1.12,1.07-2.21,1.99-3.24,.92-1.04,2.03-1.96,3.31-2.77,1.28-.81,2.69-1.45,4.22-1.92,1.53-.47,3.13-.71,4.79-.71,2.25,0,4.33,.43,6.25,1.28,1.91,.86,3.57,2.03,4.96,3.51,1.4,1.49,2.49,3.22,3.28,5.2,.79,1.98,1.18,4.1,1.18,6.35s-.39,4.37-1.18,6.35c-.79,1.98-1.88,3.71-3.28,5.2-1.4,1.49-3.05,2.66-4.96,3.51-1.91,.86-4,1.28-6.25,1.28-1.85,0-3.57-.29-5.17-.88-1.6-.58-3.03-1.32-4.29-2.19-1.26-.88-2.31-1.81-3.14-2.8-.83-.99-1.41-1.91-1.72-2.77v17.62c0,.36-.14,.67-.41,.95-.27,.27-.59,.41-.95,.41s-.68-.14-.95-.41-.41-.59-.41-.95v-40.85c0-.5,.25-.74,.74-.74,.67,0,1.17,.38,1.49,1.15,.31,.77,.47,2,.47,3.71v3.71Zm27.08,7.7c0-1.89-.3-3.68-.91-5.37-.61-1.69-1.47-3.16-2.6-4.42-1.13-1.26-2.48-2.25-4.05-2.97-1.58-.72-3.31-1.08-5.2-1.08s-3.7,.36-5.44,1.08c-1.73,.72-3.24,1.71-4.52,2.97-1.28,1.26-2.31,2.74-3.07,4.42-.77,1.69-1.15,3.48-1.15,5.37s.39,3.61,1.18,5.3c.79,1.69,1.83,3.16,3.14,4.42,1.31,1.26,2.81,2.26,4.52,3,1.71,.74,3.49,1.11,5.33,1.11s3.62-.36,5.2-1.08c1.58-.72,2.93-1.71,4.05-2.97,1.12-1.26,1.99-2.74,2.6-4.42,.61-1.69,.91-3.48,.91-5.37Z"/>
  </g>
</svg>