<?xml version="1.0" encoding="UTF-8"?>
<svg id="Layer_1" data-name="Layer 1" xmlns="http://www.w3.org/2000/svg" viewBox="0 0 256 128">
  <defs>
    <style>
      .cls-1, .cls-2, .cls-3, .cls-4 {
        fill: #be1e2d;
      }

      .cls-5 {
        fill: #fff;
        stroke-width: .96px;
      }

      .cls-5, .cls-2, .cls-3, .cls-4 {
        stroke: #fff;
        stroke-miterlimit: 10;
      }

      .cls-2 {
        stroke-width: 1.43px;
      }

      .cls-3 {
        stroke-width: 1.44px;
      }

      .cls-6 {
        fill: #231f20;
      }

      .cls-4 {
        stroke-width: .76px;
      }
    </style>
  </defs>
  <g>
    <path class="cls-3" d="M73.35,58.63c-.79-1.61-3-1.88-4.21-.56-.55,.61-1.27,1.3-2.18,2.02-2.86,2.27-56.15,42.22-57.22,45.88-.75,2.56,1.34,3.49,2.67,3.82,.58,.14,1.19,.08,1.73-.18,4.79-2.29,31.77-15.6,51.33-32.99,.04-.03,.07-.06,.11-.09l4.69-3.69c.51-.4,.86-.99,.96-1.63,.45-2.83,1.73-10.72,2.21-11.65,.13-.25,.07-.57-.1-.92Z"/>
    <path class="cls-2" d="M16.36,26.26c2.37-.84,11.9,.48,48.65,33.21,.53,.47,.51,1.3-.04,1.75l-6.95,5.66c-.45,.36-1.1,.34-1.52-.06L15.97,28.61c-.23-.22-.36-.52-.36-.84v-.44c0-.48,.29-.92,.75-1.08Z"/>
    <path class="cls-3" d="M74.92,60.86c-1.58,.57-5.9,1.66-6.62-3.06-.01-.09-.02-.18-.02-.27v-2.02c0-.32,.08-.62,.24-.9,1.17-1.98,6.2-10.9,8.3-20.88,.01-.05,.02-.11,.03-.16,.09-.81,1.06-7.95,6.41-10.41,.03-.01,.05-.03,.08-.04,.53-.32,6.57-4.18,8.37,8.26,.99,6.86,.33,10.45-.19,12.04-.21,.64-.69,1.15-1.3,1.41-1.48,.62-4.42,1.86-5.08,2.1-.72,.27-7.78,10.81-9.34,13.22-.21,.32-.52,.57-.88,.7Z"/>
    <path class="cls-4" d="M65.54,76.57s4.15,3.02,4.15,2.85,2.42-5.65,2.42-5.65l-1.8-.95-4.77,3.75Z"/>
    <path class="cls-1" d="M15.3,28.8l-.18,.86c-.03,.13,.01,.27,.11,.36l39.69,37.93c.14,.13,.35,.14,.5,.03l1.06-.81c.19-.14,.2-.43,.03-.59L15.94,28.59c-.22-.21-.58-.09-.64,.2Z"/>
    <path class="cls-1" d="M53.19,67.97c-.15-.1-.35-.1-.5,.02-4.34,3.36-43.27,33.8-44.01,35.52-.27,.63-.44,1.12-.55,1.49-.12,.4,.36,.72,.68,.44l14.34-12.1,30.89-24.12c.23-.18,.21-.52-.02-.69l-.84-.57Z"/>
    <ellipse class="cls-5" cx="86.14" cy="33.52" rx="1.94" ry="6.8"/>
    <g>
      <path class="cls-3" d="M87.56,101.56s-5.48,.54-9.14-6.62c-2.67-5.22-2.67-6.69-2.78-6.9-.01-.03-.03-.05-.04-.08l-3.46-4.9c-.08-.11-.2-.19-.34-.22-.93-.17-4.66-1.04-4.16-3.66,.07-.37,.51-.54,.82-.33l1.46,.98c.27,.18,.65,.08,.78-.22l2.23-4.94c.12-.26,.01-.56-.24-.69l-.11-.06c-.31-.17-.38-.59-.13-.84h0c.1-.1,.23-.16,.37-.16,1.5-.04,10.28-.29,11.75-.32,.13,0,11.16,9.56,11.16,9.56,.06,.05,.11,.12,.14,.19,.64,1.5,7.26,17.8-8.3,19.22Z"/>
      <ellipse class="cls-5" cx="87.16" cy="89.24" rx="4.2" ry="8.1" transform="translate(-17.35 21.14) rotate(-12.59)"/>
    </g>
  </g>
  <g>
    <path class="cls-6" d="M124.92,58.32h-10.26l-1.84,3.65h-4.85l8.84-17.14h5.95l8.87,17.14h-4.87l-1.84-3.65Zm-1.64-3.28l-3.48-6.96-3.5,6.96h6.98Z"/>
    <path class="cls-6" d="M141.25,44.58c6.83,0,10.26,2.6,10.7,7.54h-4.48c-.42-2.77-2.55-3.85-6.22-3.85-4.48,0-6.37,1.59-6.37,5.09s1.91,5.14,6.37,5.14c3.65,0,5.8-1.1,6.22-3.89h4.48c-.44,4.97-3.87,7.59-10.7,7.59-7.54,0-10.78-3.13-10.78-8.84s3.23-8.79,10.78-8.79Z"/>
    <path class="cls-6" d="M164.45,62.21c-7.54,0-10.78-2.87-10.78-8.84v-8.55h4.41v8.55c0,2.4,.66,5.14,6.37,5.14s6.37-2.77,6.37-5.14v-8.55h4.41v8.55c0,5.95-3.26,8.84-10.78,8.84Z"/>
    <path class="cls-6" d="M197.88,48.52h-8.33v13.45h-4.41v-13.45h-8.33v-3.7h21.06v3.7Z"/>
    <path class="cls-6" d="M210.25,62.21c-7.54,0-10.78-2.87-10.78-8.84v-8.55h4.41v8.55c0,2.4,.66,5.14,6.37,5.14s6.37-2.77,6.37-5.14v-8.55h4.41v8.55c0,5.95-3.26,8.84-10.78,8.84Z"/>
    <path class="cls-6" d="M227.02,56.07c0,1.81,1.47,2.65,7.05,2.65,4.63,0,6.02-.51,6.02-1.86,0-1.42-.98-1.67-6.54-1.94-7.47-.34-10.43-1.52-10.43-5.36s3.84-4.97,10.26-4.97,10.38,1.62,10.38,5.85h-4.41c0-1.89-1.89-2.35-6.47-2.35-4.33,0-5.36,.42-5.36,1.69s1.03,1.57,6.02,1.86c6.76,.37,10.95,.73,10.95,5.07,0,4.58-4.33,5.51-10.68,5.51-7.03,0-11.22-1.2-11.22-6.15h4.41Z"/>
  </g>
  <g>
    <path class="cls-1" d="M109.62,80.79c0,.52-.05,.9-.14,1.13-.1,.23-.25,.35-.45,.35-.15,0-.23-.08-.23-.23v-12.47c0-.11,.04-.21,.12-.29,.08-.08,.18-.12,.29-.12s.21,.04,.29,.12,.12,.18,.12,.29v5.38c.1-.26,.27-.54,.53-.84,.25-.3,.57-.59,.96-.86,.38-.27,.82-.49,1.31-.67,.49-.18,1.01-.27,1.58-.27,.69,0,1.32,.13,1.91,.39,.58,.26,1.09,.62,1.51,1.07,.43,.45,.76,.98,1,1.59,.24,.61,.36,1.25,.36,1.94s-.12,1.33-.36,1.94c-.24,.6-.57,1.13-1,1.59-.43,.45-.93,.81-1.51,1.07-.58,.26-1.22,.39-1.91,.39-.51,0-1-.07-1.46-.22-.47-.14-.9-.34-1.29-.59-.39-.25-.73-.53-1.01-.85-.28-.32-.48-.65-.61-.99v1.13Zm8.27-3.48c0-.58-.09-1.12-.28-1.64-.19-.52-.45-.97-.79-1.35s-.76-.69-1.24-.91-1.01-.33-1.59-.33-1.11,.11-1.63,.34c-.52,.23-.98,.53-1.38,.92s-.72,.83-.96,1.35c-.24,.52-.36,1.05-.36,1.62s.12,1.12,.35,1.64c.23,.52,.55,.97,.94,1.35s.85,.69,1.38,.91,1.08,.33,1.66,.33,1.11-.11,1.59-.33,.89-.52,1.24-.91,.61-.83,.79-1.35c.19-.51,.28-1.06,.28-1.64Z"/>
    <path class="cls-1" d="M132.58,79.66c-.12,.33-.33,.65-.61,.97-.28,.32-.62,.6-1,.85-.38,.25-.81,.45-1.29,.6-.47,.15-.97,.23-1.47,.23-.69,0-1.32-.13-1.91-.39-.58-.26-1.09-.62-1.51-1.07-.43-.45-.76-.98-1-1.59-.24-.61-.36-1.25-.36-1.94s.12-1.33,.36-1.94c.24-.6,.57-1.13,1-1.59,.43-.45,.93-.81,1.51-1.07,.58-.26,1.22-.39,1.91-.39,.56,0,1.09,.09,1.58,.27,.49,.18,.92,.4,1.31,.67,.38,.27,.7,.55,.96,.86,.25,.3,.43,.58,.53,.84v-1.13c0-.52,.05-.9,.14-1.13,.1-.23,.25-.35,.45-.35,.15,0,.23,.08,.23,.23v9.48c0,.15-.08,.23-.23,.23-.21,0-.36-.12-.45-.35-.1-.23-.14-.61-.14-1.13v-1.13Zm-8.27-2.35c0,.58,.09,1.12,.28,1.64,.19,.52,.45,.97,.79,1.35,.34,.38,.76,.69,1.24,.91,.48,.22,1.01,.33,1.59,.33s1.13-.11,1.66-.33c.53-.22,.99-.52,1.38-.91s.7-.83,.94-1.35c.23-.51,.35-1.06,.35-1.64s-.12-1.1-.36-1.62-.56-.97-.96-1.35c-.4-.38-.86-.69-1.38-.92-.52-.23-1.07-.34-1.63-.34s-1.11,.11-1.59,.33c-.48,.22-.89,.52-1.24,.91-.34,.38-.61,.83-.79,1.35-.19,.51-.28,1.06-.28,1.64Z"/>
    <path class="cls-1" d="M140.03,74.88c.05-.22,.2-.48,.42-.78,.23-.3,.52-.58,.88-.85s.77-.48,1.25-.67c.47-.19,.99-.28,1.54-.28,.19,0,.38,.02,.56,.05s.33,.07,.45,.12c.26,.08,.38,.25,.37,.51-.03,.13-.09,.22-.18,.29-.09,.07-.2,.1-.32,.08-.18-.01-.34-.06-.48-.12s-.32-.1-.53-.1c-.54,0-1.04,.11-1.51,.34-.47,.23-.89,.53-1.26,.92s-.65,.83-.87,1.35-.32,1.05-.32,1.62v4.5c0,.12-.04,.23-.11,.31-.08,.08-.18,.12-.3,.12s-.22-.04-.3-.12c-.08-.08-.11-.19-.11-.31v-9.32c0-.15,.08-.23,.23-.23,.21,0,.36,.12,.45,.35s.14,.61,.14,1.13v1.09Z"/>
    <path class="cls-1" d="M150.81,80.79c0,.52-.05,.9-.14,1.13-.1,.23-.25,.35-.45,.35-.15,0-.23-.08-.23-.23v-12.47c0-.11,.04-.21,.12-.29,.08-.08,.18-.12,.29-.12s.21,.04,.29,.12,.12,.18,.12,.29v5.38c.1-.26,.27-.54,.53-.84,.25-.3,.57-.59,.96-.86,.38-.27,.82-.49,1.31-.67,.49-.18,1.01-.27,1.58-.27,.69,0,1.32,.13,1.91,.39,.58,.26,1.09,.62,1.51,1.07,.43,.45,.76,.98,1,1.59,.24,.61,.36,1.25,.36,1.94s-.12,1.33-.36,1.94c-.24,.6-.57,1.13-1,1.59-.43,.45-.93,.81-1.51,1.07-.58,.26-1.22,.39-1.91,.39-.51,0-1-.07-1.46-.22-.47-.14-.9-.34-1.29-.59-.39-.25-.73-.53-1.01-.85-.28-.32-.48-.65-.61-.99v1.13Zm8.27-3.48c0-.58-.09-1.12-.28-1.64-.19-.52-.45-.97-.79-1.35s-.76-.69-1.24-.91-1.01-.33-1.59-.33-1.11,.11-1.63,.34c-.52,.23-.98,.53-1.38,.92s-.72,.83-.96,1.35c-.24,.52-.36,1.05-.36,1.62s.12,1.12,.35,1.64c.23,.52,.55,.97,.94,1.35s.85,.69,1.38,.91,1.08,.33,1.66,.33,1.11-.11,1.59-.33,.89-.52,1.24-.91,.61-.83,.79-1.35c.19-.51,.28-1.06,.28-1.64Z"/>
    <path class="cls-1" d="M169.78,82.28c-.69,0-1.33-.13-1.94-.39-.61-.26-1.13-.62-1.59-1.06-.45-.45-.81-.97-1.07-1.58-.26-.61-.39-1.25-.39-1.94,0-.77,.14-1.46,.41-2.08,.27-.62,.65-1.14,1.12-1.58,.47-.43,1.02-.77,1.65-1s1.28-.35,1.96-.35,1.32,.13,1.91,.38c.59,.25,1.1,.61,1.53,1.05,.43,.45,.77,.97,1.02,1.58,.25,.61,.37,1.26,.37,1.96,0,.11-.04,.21-.12,.29-.08,.08-.2,.12-.35,.12h-8.64c.04,.54,.18,1.04,.41,1.5,.23,.47,.53,.87,.9,1.22s.79,.62,1.27,.81c.48,.2,1,.3,1.55,.3,.51,0,1.01-.09,1.5-.28,.5-.19,.92-.46,1.28-.81,.08-.08,.19-.12,.31-.12s.23,.04,.31,.12c.07,.08,.11,.18,.12,.3,.01,.12-.03,.22-.12,.32-.17,.14-.36,.28-.59,.42s-.48,.28-.76,.4c-.28,.12-.59,.22-.94,.3s-.71,.11-1.11,.11Zm.17-9.22c-.55,0-1.07,.1-1.57,.3-.5,.2-.94,.47-1.32,.82-.38,.35-.7,.75-.94,1.22-.24,.47-.39,.97-.44,1.51h8.27c-.04-.54-.17-1.04-.38-1.51-.21-.47-.49-.88-.84-1.22-.35-.34-.76-.62-1.24-.82s-.99-.3-1.54-.3Z"/>
    <path class="cls-1" d="M180.81,74.88c.05-.22,.2-.48,.42-.78,.23-.3,.52-.58,.88-.85s.77-.48,1.25-.67c.47-.19,.99-.28,1.54-.28,.19,0,.38,.02,.56,.05s.33,.07,.45,.12c.26,.08,.38,.25,.37,.51-.03,.13-.09,.22-.18,.29-.09,.07-.2,.1-.32,.08-.18-.01-.34-.06-.48-.12s-.32-.1-.53-.1c-.54,0-1.04,.11-1.51,.34-.47,.23-.89,.53-1.26,.92s-.65,.83-.87,1.35-.32,1.05-.32,1.62v4.5c0,.12-.04,.23-.11,.31-.08,.08-.18,.12-.3,.12s-.22-.04-.3-.12c-.08-.08-.11-.19-.11-.31v-9.32c0-.15,.08-.23,.23-.23,.21,0,.36,.12,.45,.35s.14,.61,.14,1.13v1.09Z"/>
    <path class="cls-1" d="M194.59,82.28c-.44,0-.92-.07-1.44-.2-.52-.13-1-.32-1.45-.56-.45-.24-.82-.54-1.11-.89s-.44-.75-.44-1.19c0-.17,.05-.28,.14-.35,.09-.07,.17-.1,.24-.1,.15,0,.26,.04,.33,.13,.07,.09,.11,.19,.11,.3,0,.21,.09,.43,.28,.66,.19,.23,.44,.45,.76,.65,.32,.2,.71,.37,1.15,.5,.44,.14,.92,.21,1.43,.21,.92,.01,1.63-.08,2.13-.29s.86-.43,1.1-.68c.23-.25,.37-.48,.41-.69,.04-.21,.06-.33,.06-.34,0-.59-.32-1.05-.97-1.37s-1.56-.52-2.73-.59c-.9-.04-1.6-.16-2.11-.35s-.9-.42-1.17-.68c-.27-.26-.44-.53-.51-.8-.07-.27-.1-.53-.1-.76,0-.3,.07-.61,.22-.92,.14-.31,.37-.59,.68-.83,.31-.25,.71-.45,1.22-.61,.5-.16,1.1-.24,1.8-.24,.54,0,1.05,.06,1.56,.19,.5,.12,.95,.3,1.33,.53s.7,.5,.94,.81,.36,.67,.36,1.07c0,.11-.02,.19-.06,.25-.04,.06-.09,.09-.14,.11-.05,.02-.13,.04-.22,.05-.19,0-.3-.06-.34-.19s-.06-.2-.06-.23c0-.21-.08-.42-.25-.63s-.4-.4-.7-.57c-.3-.16-.65-.3-1.05-.41-.4-.11-.84-.17-1.31-.17-.66,0-1.2,.07-1.61,.21-.41,.14-.73,.3-.95,.5-.23,.19-.38,.39-.47,.59s-.12,.36-.12,.49c0,.22,.04,.43,.11,.62,.08,.19,.22,.37,.44,.52,.22,.15,.53,.28,.93,.39,.4,.11,.92,.19,1.55,.23,.57,.04,1.12,.11,1.66,.22,.54,.1,1.03,.26,1.46,.46,.43,.21,.77,.48,1.03,.82,.26,.34,.39,.77,.39,1.29s-.13,.94-.39,1.29c-.26,.36-.6,.65-1.02,.87-.42,.23-.9,.39-1.44,.49-.54,.1-1.1,.15-1.68,.15Z"/>
    <path class="cls-1" d="M213.42,77.31c0-.58-.1-1.12-.29-1.64-.19-.52-.46-.97-.81-1.35s-.77-.69-1.26-.91c-.49-.22-1.02-.33-1.6-.33s-1.11,.12-1.64,.35-1,.55-1.4,.94c-.41,.39-.73,.84-.97,1.36-.24,.52-.36,1.05-.36,1.62v4.5c0,.12-.04,.23-.11,.31-.08,.08-.18,.12-.3,.12s-.22-.04-.3-.12c-.08-.08-.11-.19-.11-.31v-12.27c0-.11,.04-.21,.12-.29,.08-.08,.18-.12,.29-.12s.21,.04,.29,.12,.12,.18,.12,.29v5.38c.1-.26,.27-.54,.53-.84,.25-.3,.57-.59,.96-.86,.38-.27,.82-.49,1.31-.67,.49-.18,1.01-.27,1.58-.27,.69,0,1.32,.13,1.91,.39,.58,.26,1.09,.62,1.51,1.06,.43,.45,.76,.97,1,1.58,.24,.61,.36,1.25,.36,1.94v4.56c0,.12-.04,.23-.11,.31-.08,.08-.18,.12-.3,.12s-.22-.04-.3-.12c-.08-.08-.11-.19-.11-.31v-4.54Z"/>
    <path class="cls-1" d="M219.09,77.29c0-.69,.13-1.33,.39-1.94,.26-.6,.62-1.13,1.07-1.59s.98-.81,1.59-1.07c.6-.26,1.25-.39,1.94-.39s1.33,.13,1.94,.39c.6,.26,1.13,.62,1.59,1.07,.45,.45,.81,.98,1.07,1.59,.26,.61,.39,1.25,.39,1.94s-.13,1.33-.39,1.94c-.26,.61-.62,1.13-1.07,1.59-.45,.45-.98,.81-1.59,1.07-.61,.26-1.25,.39-1.94,.39s-1.33-.13-1.94-.39c-.61-.26-1.13-.62-1.59-1.07s-.81-.98-1.07-1.59c-.26-.6-.39-1.25-.39-1.94Zm.87,0c0,.58,.11,1.12,.32,1.64,.21,.52,.5,.97,.88,1.35s.81,.69,1.31,.91,1.04,.33,1.62,.33,1.12-.11,1.62-.33c.5-.22,.94-.52,1.31-.91s.66-.83,.88-1.35c.21-.51,.32-1.06,.32-1.64s-.11-1.12-.32-1.64c-.21-.51-.5-.96-.88-1.35s-.81-.69-1.31-.91c-.5-.22-1.04-.33-1.62-.33s-1.12,.11-1.62,.33-.94,.52-1.31,.91-.66,.83-.88,1.35c-.21,.52-.32,1.06-.32,1.64Z"/>
    <path class="cls-1" d="M234.64,74.94c.12-.34,.33-.67,.61-.99,.28-.32,.62-.6,1.01-.85,.39-.25,.82-.44,1.29-.59,.47-.14,.96-.22,1.46-.22,.69,0,1.32,.13,1.91,.39,.58,.26,1.09,.62,1.51,1.07,.43,.45,.76,.98,1,1.59,.24,.61,.36,1.25,.36,1.94s-.12,1.33-.36,1.94c-.24,.61-.57,1.13-1,1.59-.43,.45-.93,.81-1.51,1.07-.58,.26-1.22,.39-1.91,.39-.56,0-1.09-.09-1.58-.27-.49-.18-.92-.4-1.31-.67-.38-.27-.7-.55-.96-.86-.25-.3-.43-.58-.53-.84v5.38c0,.11-.04,.21-.12,.29-.08,.08-.18,.12-.29,.12s-.21-.04-.29-.12-.12-.18-.12-.29v-12.47c0-.15,.08-.23,.23-.23,.21,0,.36,.12,.45,.35s.14,.61,.14,1.13v1.13Zm8.27,2.35c0-.58-.09-1.12-.28-1.64-.19-.51-.45-.96-.79-1.35s-.76-.69-1.24-.91-1.01-.33-1.59-.33-1.13,.11-1.66,.33-.99,.52-1.38,.91-.71,.83-.94,1.35c-.23,.52-.35,1.06-.35,1.64s.12,1.1,.36,1.62c.24,.52,.56,.97,.96,1.35s.86,.69,1.38,.92c.52,.23,1.06,.34,1.63,.34s1.11-.11,1.59-.33,.89-.52,1.24-.91,.61-.83,.79-1.35c.19-.51,.28-1.06,.28-1.64Z"/>
  </g>
</svg>