<?xml version="1.0" encoding="UTF-8"?>
<svg id="Layer_1" data-name="Layer 1" xmlns="http://www.w3.org/2000/svg" viewBox="0 0 512 256">
  <defs>
    <style>
      .cls-1 {
        stroke-width: 2.67px;
      }

      .cls-1, .cls-2, .cls-3, .cls-4 {
        fill: #be1e2d;
      }

      .cls-1, .cls-3, .cls-4, .cls-5 {
        stroke: #fff;
        stroke-miterlimit: 10;
      }

      .cls-3 {
        stroke-width: 1.42px;
      }

      .cls-4 {
        stroke-width: 2.68px;
      }

      .cls-6 {
        fill: #231f20;
      }

      .cls-5 {
        fill: #fff;
        stroke-width: 1.79px;
      }
    </style>
  </defs>
  <g>
    <path class="cls-4" d="M146.97,108.78c-1.48-3.01-5.6-3.51-7.85-1.04-1.03,1.13-2.37,2.42-4.06,3.77-5.34,4.25-104.85,78.84-106.86,85.68-1.41,4.79,2.51,6.52,4.98,7.13,1.09,.27,2.23,.14,3.24-.34,8.94-4.28,59.33-29.13,95.86-61.6,.07-.06,.14-.12,.21-.17l8.75-6.88c.96-.76,1.6-1.84,1.79-3.05,.84-5.28,3.23-20.03,4.13-21.76,.25-.47,.14-1.07-.18-1.72Z"/>
    <path class="cls-1" d="M40.53,48.33c4.42-1.58,22.22,.9,90.85,62.01,.99,.88,.96,2.44-.07,3.27l-12.98,10.57c-.84,.68-2.05,.64-2.83-.1L39.81,52.73c-.43-.41-.67-.97-.67-1.56v-.82c0-.9,.55-1.71,1.39-2.01Z"/>
    <path class="cls-4" d="M149.9,112.95c-2.95,1.06-11.02,3.11-12.36-5.71-.03-.17-.04-.34-.04-.5v-3.76c0-.59,.16-1.17,.46-1.67,2.18-3.7,11.58-20.36,15.5-39,.02-.1,.04-.2,.05-.3,.17-1.5,1.99-14.84,11.97-19.43,.05-.02,.1-.05,.14-.08,.99-.6,12.27-7.8,15.63,15.42,1.85,12.81,.62,19.51-.35,22.48-.39,1.19-1.28,2.14-2.43,2.63-2.75,1.16-8.26,3.48-9.48,3.93-1.34,.5-14.54,20.19-17.43,24.69-.39,.61-.96,1.07-1.64,1.31Z"/>
    <path class="cls-3" d="M132.37,142.28s7.74,5.63,7.74,5.33,4.53-10.56,4.53-10.56l-3.37-1.77-8.9,7Z"/>
    <path class="cls-2" d="M38.55,53.06l-.33,1.6c-.05,.24,.03,.5,.21,.67L112.55,126.17c.26,.25,.65,.27,.94,.05l1.98-1.51c.36-.27,.38-.8,.06-1.1L39.75,52.68c-.41-.38-1.08-.17-1.2,.38Z"/>
    <path class="cls-2" d="M109.32,126.22c-.28-.19-.66-.18-.93,.03-8.1,6.28-80.81,63.12-82.18,66.33-.5,1.18-.82,2.09-1.02,2.79-.22,.76,.67,1.34,1.27,.83l26.78-22.6,57.69-45.04c.42-.33,.4-.98-.04-1.28l-1.57-1.06Z"/>
    <ellipse class="cls-5" cx="170.85" cy="61.88" rx="3.62" ry="12.7"/>
    <g>
      <path class="cls-4" d="M173.49,188.95c-.06,0-10.24,1-17.07-12.36-4.99-9.75-5-12.49-5.19-12.89-.02-.05-.05-.1-.08-.14l-6.45-9.15c-.15-.21-.37-.36-.63-.4-1.75-.33-8.7-1.94-7.77-6.83,.13-.69,.94-1,1.53-.61l2.73,1.83c.51,.34,1.21,.14,1.46-.42l4.16-9.23c.22-.48,.02-1.05-.44-1.29l-.21-.11c-.59-.31-.71-1.1-.25-1.57h0c.18-.19,.43-.3,.69-.3,2.79-.08,19.19-.54,21.93-.59,.25,0,20.83,17.85,20.83,17.85,.11,.1,.2,.22,.26,.35,1.2,2.81,13.56,33.25-15.5,35.89Z"/>
      <ellipse class="cls-5" cx="172.75" cy="165.94" rx="7.84" ry="15.13" transform="translate(-32.01 41.64) rotate(-12.59)"/>
    </g>
  </g>
  <g>
    <path class="cls-6" d="M243.25,108.2h-19.16l-3.43,6.81h-9.05l16.51-32.01h11.11l16.55,32.01h-9.1l-3.43-6.81Zm-3.06-6.13l-6.49-12.99-6.54,12.99h13.03Z"/>
    <path class="cls-6" d="M273.76,82.54c12.76,0,19.16,4.85,19.98,14.08h-8.37c-.78-5.17-4.76-7.18-11.62-7.18-8.37,0-11.89,2.97-11.89,9.51s3.57,9.6,11.89,9.6c6.81,0,10.84-2.06,11.62-7.27h8.37c-.82,9.28-7.23,14.18-19.98,14.18-14.08,0-20.12-5.85-20.12-16.51s6.04-16.42,20.12-16.42Z"/>
    <path class="cls-6" d="M317.07,115.47c-14.08,0-20.12-5.35-20.12-16.51v-15.96h8.23v15.96c0,4.48,1.24,9.6,11.89,9.6s11.89-5.17,11.89-9.6v-15.96h8.23v15.96c0,11.11-6.08,16.51-20.12,16.51Z"/>
    <path class="cls-6" d="M379.5,89.91h-15.55v25.11h-8.23v-25.11h-15.55v-6.91h39.33v6.91Z"/>
    <path class="cls-6" d="M402.6,115.47c-14.08,0-20.12-5.35-20.12-16.51v-15.96h8.23v15.96c0,4.48,1.24,9.6,11.89,9.6s11.89-5.17,11.89-9.6v-15.96h8.23v15.96c0,11.11-6.08,16.51-20.12,16.51Z"/>
    <path class="cls-6" d="M433.93,103.99c0,3.38,2.74,4.94,13.17,4.94,8.64,0,11.25-.96,11.25-3.48,0-2.65-1.83-3.11-12.21-3.61-13.95-.64-19.48-2.83-19.48-10.01s7.18-9.28,19.16-9.28,19.39,3.02,19.39,10.93h-8.23c0-3.52-3.52-4.39-12.07-4.39-8.09,0-10.01,.78-10.01,3.16s1.92,2.93,11.25,3.48c12.62,.69,20.44,1.37,20.44,9.47,0,8.55-8.09,10.29-19.94,10.29-13.12,0-20.94-2.24-20.94-11.48h8.23Z"/>
  </g>
  <g>
    <path class="cls-2" d="M214.69,150.17c0,.98-.09,1.68-.27,2.12-.18,.44-.46,.65-.85,.65-.28,0-.42-.14-.42-.42v-23.29c0-.21,.08-.38,.23-.54,.15-.15,.33-.23,.54-.23s.38,.08,.54,.23c.15,.15,.23,.33,.23,.54v10.05c.18-.49,.51-1.01,.98-1.58,.47-.56,1.07-1.1,1.79-1.6,.72-.5,1.53-.92,2.44-1.25,.91-.33,1.89-.5,2.95-.5,1.28,0,2.47,.24,3.56,.73,1.09,.49,2.03,1.16,2.83,2,.8,.85,1.42,1.83,1.87,2.96s.67,2.34,.67,3.62-.22,2.49-.67,3.62c-.45,1.13-1.07,2.12-1.87,2.96-.8,.85-1.74,1.51-2.83,2-1.09,.49-2.28,.73-3.56,.73-.95,0-1.86-.13-2.73-.4-.87-.27-1.67-.63-2.41-1.1s-1.36-.99-1.89-1.58c-.53-.59-.9-1.21-1.14-1.85v2.12Zm15.44-6.51c0-1.08-.17-2.1-.52-3.06-.35-.96-.84-1.8-1.48-2.52-.64-.72-1.41-1.28-2.31-1.69-.9-.41-1.89-.62-2.96-.62s-2.07,.21-3.04,.64c-.98,.42-1.84,1-2.58,1.71-.74,.72-1.34,1.56-1.79,2.52-.45,.96-.67,1.97-.67,3.02s.22,2.1,.65,3.06c.44,.96,1.02,1.8,1.75,2.52,.73,.72,1.59,1.28,2.58,1.69,.99,.41,2.02,.62,3.1,.62s2.07-.21,2.96-.62c.9-.41,1.67-.98,2.31-1.69,.64-.72,1.14-1.56,1.48-2.52,.35-.96,.52-1.98,.52-3.06Z"/>
    <path class="cls-2" d="M257.58,148.05c-.23,.62-.61,1.22-1.14,1.81-.53,.59-1.15,1.12-1.87,1.58-.72,.46-1.52,.83-2.41,1.12-.89,.28-1.8,.42-2.75,.42-1.28,0-2.47-.24-3.56-.73-1.09-.49-2.03-1.15-2.83-2-.8-.85-1.42-1.83-1.87-2.96-.45-1.13-.67-2.34-.67-3.62s.22-2.49,.67-3.62c.45-1.13,1.07-2.12,1.87-2.96,.8-.85,1.74-1.51,2.83-2,1.09-.49,2.28-.73,3.56-.73,1.05,0,2.03,.17,2.95,.5,.91,.33,1.73,.75,2.44,1.25,.72,.5,1.31,1.03,1.79,1.6,.48,.56,.8,1.09,.98,1.58v-2.12c0-.98,.09-1.68,.27-2.12,.18-.44,.46-.65,.85-.65,.28,0,.42,.14,.42,.42v17.71c0,.28-.14,.42-.42,.42-.38,0-.67-.22-.85-.65-.18-.44-.27-1.14-.27-2.12v-2.12Zm-15.44-4.39c0,1.08,.17,2.1,.52,3.06,.35,.96,.84,1.8,1.48,2.52,.64,.72,1.41,1.28,2.31,1.69,.9,.41,1.89,.62,2.96,.62s2.11-.21,3.1-.62c.99-.41,1.85-.98,2.58-1.69,.73-.72,1.32-1.56,1.75-2.52,.44-.96,.65-1.98,.65-3.06s-.22-2.06-.67-3.02c-.45-.96-1.05-1.8-1.79-2.52-.74-.72-1.6-1.29-2.58-1.71-.98-.42-1.99-.64-3.04-.64s-2.07,.21-2.96,.62c-.9,.41-1.67,.98-2.31,1.69-.64,.72-1.14,1.56-1.48,2.52-.35,.96-.52,1.98-.52,3.06Z"/>
    <path class="cls-2" d="M271.48,139.12c.1-.41,.37-.9,.79-1.46,.42-.56,.97-1.09,1.64-1.58,.67-.49,1.44-.91,2.33-1.25,.89-.35,1.84-.52,2.87-.52,.36,0,.71,.03,1.04,.1,.33,.07,.62,.14,.85,.22,.49,.16,.72,.47,.69,.95-.05,.24-.16,.42-.33,.54-.17,.13-.37,.18-.6,.15-.33-.03-.63-.1-.9-.23-.27-.13-.6-.19-.98-.19-1,0-1.94,.21-2.83,.64-.89,.42-1.67,1-2.35,1.71-.68,.72-1.22,1.56-1.62,2.52-.4,.96-.6,1.97-.6,3.02v8.39c0,.23-.07,.42-.21,.58-.14,.15-.33,.23-.56,.23s-.42-.08-.56-.23c-.14-.15-.21-.35-.21-.58v-17.4c0-.28,.14-.42,.42-.42,.39,0,.67,.22,.85,.66,.18,.44,.27,1.14,.27,2.12v2.04Z"/>
    <path class="cls-2" d="M291.61,150.17c0,.98-.09,1.68-.27,2.12s-.46,.65-.85,.65c-.28,0-.42-.14-.42-.42v-23.29c0-.21,.08-.38,.23-.54s.33-.23,.54-.23,.38,.08,.54,.23c.15,.15,.23,.33,.23,.54v10.05c.18-.49,.51-1.01,.98-1.58,.47-.56,1.07-1.1,1.79-1.6,.72-.5,1.53-.92,2.44-1.25,.91-.33,1.89-.5,2.95-.5,1.28,0,2.47,.24,3.56,.73s2.03,1.16,2.83,2c.79,.85,1.42,1.83,1.87,2.96s.67,2.34,.67,3.62-.22,2.49-.67,3.62c-.45,1.13-1.07,2.12-1.87,2.96-.8,.85-1.74,1.51-2.83,2-1.09,.49-2.28,.73-3.56,.73-.95,0-1.86-.13-2.73-.4-.87-.27-1.67-.63-2.41-1.1s-1.36-.99-1.89-1.58c-.53-.59-.9-1.21-1.14-1.85v2.12Zm15.44-6.51c0-1.08-.17-2.1-.52-3.06-.35-.96-.84-1.8-1.48-2.52-.64-.72-1.41-1.28-2.31-1.69-.9-.41-1.89-.62-2.96-.62s-2.07,.21-3.04,.64c-.98,.42-1.84,1-2.58,1.71-.74,.72-1.34,1.56-1.79,2.52-.45,.96-.67,1.97-.67,3.02s.22,2.1,.65,3.06c.44,.96,1.02,1.8,1.75,2.52,.73,.72,1.59,1.28,2.58,1.69,.99,.41,2.02,.62,3.1,.62s2.07-.21,2.96-.62c.9-.41,1.67-.98,2.31-1.69,.64-.72,1.14-1.56,1.48-2.52,.35-.96,.52-1.98,.52-3.06Z"/>
    <path class="cls-2" d="M327.03,152.94c-1.28,0-2.49-.24-3.62-.73-1.13-.49-2.12-1.15-2.96-1.98-.85-.83-1.51-1.82-2-2.95-.49-1.13-.73-2.34-.73-3.62,0-1.44,.26-2.73,.77-3.89,.51-1.16,1.21-2.14,2.09-2.95s1.91-1.43,3.07-1.87c1.17-.44,2.39-.66,3.67-.66s2.47,.24,3.57,.71c1.1,.47,2.05,1.13,2.86,1.96,.81,.83,1.44,1.82,1.9,2.95,.46,1.13,.69,2.35,.69,3.66,0,.21-.08,.38-.23,.54-.15,.15-.37,.23-.65,.23h-16.13c.08,1,.33,1.94,.77,2.81,.44,.87,1,1.63,1.67,2.27,.68,.64,1.47,1.15,2.37,1.52s1.86,.56,2.89,.56c.95,0,1.89-.17,2.81-.52s1.72-.85,2.39-1.52c.15-.15,.35-.23,.58-.23s.42,.08,.58,.23c.13,.15,.21,.34,.23,.56,.03,.22-.05,.42-.23,.6-.31,.26-.67,.52-1.1,.79-.42,.27-.9,.52-1.42,.75-.53,.23-1.11,.42-1.75,.56-.64,.14-1.33,.21-2.08,.21Zm.31-17.21c-1.03,0-2,.19-2.93,.56s-1.75,.88-2.46,1.53c-.72,.64-1.3,1.41-1.75,2.28-.45,.88-.73,1.82-.83,2.83h15.44c-.08-1.01-.31-1.95-.71-2.83-.4-.88-.92-1.64-1.58-2.28-.65-.65-1.42-1.16-2.31-1.53-.89-.37-1.84-.56-2.87-.56Z"/>
    <path class="cls-2" d="M347.63,139.12c.1-.41,.37-.9,.79-1.46,.42-.56,.97-1.09,1.64-1.58,.67-.49,1.44-.91,2.33-1.25,.89-.35,1.84-.52,2.87-.52,.36,0,.71,.03,1.04,.1,.33,.07,.62,.14,.85,.22,.49,.16,.72,.47,.69,.95-.05,.24-.16,.42-.33,.54-.17,.13-.37,.18-.6,.15-.33-.03-.64-.1-.91-.23-.27-.13-.6-.19-.98-.19-1,0-1.94,.21-2.83,.64s-1.67,1-2.35,1.71c-.68,.72-1.22,1.56-1.62,2.52-.4,.96-.6,1.97-.6,3.02v8.39c0,.23-.07,.42-.21,.58-.14,.15-.33,.23-.56,.23s-.42-.08-.56-.23c-.14-.15-.21-.35-.21-.58v-17.4c0-.28,.14-.42,.42-.42,.38,0,.67,.22,.85,.66s.27,1.14,.27,2.12v2.04Z"/>
    <path class="cls-2" d="M373.37,152.94c-.82,0-1.71-.12-2.69-.37-.97-.24-1.88-.59-2.71-1.04s-1.52-1-2.07-1.66c-.55-.66-.83-1.39-.83-2.21,0-.31,.09-.53,.26-.65,.17-.13,.33-.19,.45-.19,.28,0,.48,.08,.62,.25,.14,.17,.21,.35,.21,.56,0,.39,.17,.8,.52,1.23s.82,.84,1.43,1.21c.6,.37,1.32,.69,2.14,.94,.82,.26,1.71,.38,2.66,.38,1.72,.03,3.05-.15,3.98-.54,.93-.38,1.61-.81,2.05-1.27s.69-.89,.77-1.29c.08-.4,.12-.61,.12-.63,0-1.1-.6-1.96-1.81-2.56-1.21-.6-2.91-.97-5.1-1.1-1.67-.08-2.99-.29-3.94-.65-.95-.36-1.68-.78-2.18-1.27-.5-.49-.82-.99-.95-1.5-.13-.51-.19-.99-.19-1.42,0-.56,.13-1.14,.4-1.71,.27-.58,.69-1.1,1.27-1.56,.58-.46,1.33-.84,2.27-1.14,.94-.29,2.06-.44,3.37-.44,1,0,1.97,.12,2.91,.35,.94,.23,1.76,.56,2.48,.98,.72,.42,1.3,.93,1.75,1.52,.45,.59,.67,1.26,.67,2,0,.21-.04,.36-.11,.46s-.16,.17-.26,.21c-.1,.04-.24,.07-.41,.1-.35,0-.56-.12-.64-.35-.08-.23-.11-.37-.11-.42,0-.38-.16-.78-.46-1.17-.31-.4-.74-.75-1.3-1.06-.56-.31-1.21-.56-1.96-.77s-1.56-.31-2.44-.31c-1.24,0-2.24,.13-3,.39s-1.36,.57-1.78,.93c-.43,.36-.72,.73-.87,1.1s-.23,.68-.23,.91c0,.41,.07,.8,.21,1.16,.14,.36,.42,.68,.83,.97,.41,.28,.99,.53,1.74,.74,.75,.21,1.71,.35,2.9,.43,1.06,.08,2.09,.21,3.11,.4,1.02,.19,1.92,.48,2.72,.86,.8,.38,1.44,.9,1.93,1.53,.49,.64,.73,1.45,.73,2.42s-.24,1.75-.73,2.42-1.12,1.21-1.9,1.63c-.78,.42-1.68,.73-2.69,.92s-2.05,.29-3.13,.29Z"/>
    <path class="cls-2" d="M408.54,143.66c0-1.08-.18-2.1-.54-3.06-.36-.96-.87-1.8-1.52-2.52s-1.44-1.28-2.35-1.69c-.91-.41-1.91-.62-2.98-.62s-2.07,.22-3.06,.66c-.99,.44-1.86,1.02-2.62,1.75-.76,.73-1.36,1.58-1.81,2.54-.45,.96-.67,1.97-.67,3.02v8.39c0,.23-.07,.42-.21,.58-.14,.15-.33,.23-.56,.23s-.42-.08-.56-.23c-.14-.15-.21-.35-.21-.58v-22.91c0-.21,.08-.38,.23-.54,.15-.15,.33-.23,.54-.23s.38,.08,.54,.23c.15,.15,.23,.33,.23,.54v10.05c.18-.49,.51-1.01,.98-1.58,.47-.56,1.07-1.1,1.79-1.6,.72-.5,1.53-.92,2.45-1.25,.91-.33,1.89-.5,2.95-.5,1.28,0,2.47,.24,3.56,.73,1.09,.49,2.03,1.15,2.83,1.98,.8,.83,1.42,1.82,1.87,2.95,.45,1.13,.67,2.34,.67,3.62v8.51c0,.23-.07,.42-.21,.58-.14,.15-.33,.23-.56,.23s-.42-.08-.56-.23c-.14-.15-.21-.35-.21-.58v-8.47Z"/>
    <path class="cls-2" d="M419.13,143.62c0-1.28,.24-2.49,.73-3.62,.49-1.13,1.16-2.12,2-2.96,.85-.85,1.83-1.51,2.96-2,1.13-.49,2.33-.73,3.62-.73s2.49,.24,3.62,.73c1.13,.49,2.12,1.16,2.96,2,.85,.85,1.51,1.84,2,2.96,.49,1.13,.73,2.34,.73,3.62s-.24,2.49-.73,3.62c-.49,1.13-1.16,2.12-2,2.96-.85,.85-1.84,1.51-2.96,2-1.13,.49-2.34,.73-3.62,.73s-2.49-.24-3.62-.73c-1.13-.49-2.12-1.16-2.96-2-.85-.85-1.51-1.83-2-2.96-.49-1.13-.73-2.33-.73-3.62Zm1.62,0c0,1.08,.2,2.1,.6,3.06,.4,.96,.94,1.8,1.64,2.52,.69,.72,1.51,1.28,2.44,1.69,.94,.41,1.94,.62,3.02,.62s2.08-.21,3.02-.62c.94-.41,1.75-.97,2.44-1.69,.69-.72,1.24-1.56,1.64-2.52,.4-.96,.6-1.98,.6-3.06s-.2-2.1-.6-3.06c-.4-.96-.94-1.8-1.64-2.52-.69-.72-1.51-1.28-2.44-1.69-.94-.41-1.94-.62-3.02-.62s-2.09,.21-3.02,.62c-.94,.41-1.75,.98-2.44,1.69-.69,.72-1.24,1.56-1.64,2.52-.4,.96-.6,1.98-.6,3.06Z"/>
    <path class="cls-2" d="M448.16,139.23c.23-.64,.61-1.26,1.14-1.85,.53-.59,1.16-1.12,1.89-1.58s1.53-.83,2.41-1.1c.87-.27,1.78-.4,2.73-.4,1.28,0,2.47,.24,3.56,.73,1.09,.49,2.03,1.16,2.83,2,.79,.85,1.42,1.84,1.87,2.96,.45,1.13,.67,2.34,.67,3.62s-.23,2.49-.67,3.62c-.45,1.13-1.07,2.12-1.87,2.96-.8,.85-1.74,1.51-2.83,2-1.09,.49-2.28,.73-3.56,.73-1.05,0-2.03-.17-2.95-.5-.91-.33-1.73-.75-2.44-1.25-.72-.5-1.32-1.03-1.79-1.6s-.8-1.09-.98-1.58v10.05c0,.21-.08,.38-.23,.54-.15,.15-.33,.23-.54,.23s-.38-.08-.54-.23c-.15-.15-.23-.33-.23-.54v-23.29c0-.28,.14-.42,.42-.42,.38,0,.67,.22,.85,.65s.27,1.14,.27,2.12v2.12Zm15.44,4.39c0-1.08-.17-2.1-.52-3.06-.35-.96-.84-1.8-1.48-2.52s-1.41-1.28-2.31-1.69c-.9-.41-1.89-.62-2.96-.62s-2.11,.21-3.1,.62c-.99,.41-1.85,.98-2.58,1.69s-1.32,1.56-1.75,2.52c-.44,.96-.65,1.98-.65,3.06s.22,2.06,.67,3.02c.45,.96,1.04,1.8,1.79,2.52,.74,.72,1.6,1.29,2.58,1.71,.97,.42,1.99,.63,3.04,.63s2.07-.21,2.96-.62c.9-.41,1.67-.97,2.31-1.69s1.14-1.56,1.48-2.52c.35-.96,.52-1.98,.52-3.06Z"/>
  </g>
</svg>