<?xml version="1.0" encoding="UTF-8"?>
<svg id="Layer_1" data-name="Layer 1" xmlns="http://www.w3.org/2000/svg" viewBox="0 0 32 32">
  <defs>
    <style>
      .cls-1 {
        fill: #fff;
        stroke-width: .3px;
      }

      .cls-1, .cls-2, .cls-3, .cls-4 {
        stroke: #fff;
        stroke-miterlimit: 10;
      }

      .cls-2 {
        stroke-width: .45px;
      }

      .cls-3 {
        stroke-width: .44px;
      }

      .cls-4 {
        stroke-width: .24px;
      }
    </style>
  </defs>
  <path class="cls-2" d="M22.35,13.68c-.25-.5-.93-.59-1.31-.17-.17,.19-.39,.4-.68,.63-.89,.71-17.48,13.14-17.81,14.28-.23,.8,.42,1.09,.83,1.19,.18,.04,.37,.02,.54-.06,1.49-.71,9.89-4.85,15.98-10.27,.01,0,.02-.02,.03-.03l1.46-1.15c.16-.13,.27-.31,.3-.51,.14-.88,.54-3.34,.69-3.63,.04-.08,.02-.18-.03-.29Z"/>
  <path class="cls-3" d="M4.61,3.6c.74-.26,3.7,.15,15.14,10.34,.16,.15,.16,.41-.01,.55l-2.16,1.76c-.14,.11-.34,.11-.47-.02L4.49,4.33c-.07-.07-.11-.16-.11-.26v-.14c0-.15,.09-.29,.23-.34Z"/>
  <path class="cls-2" d="M22.83,14.37c-.49,.18-1.84,.52-2.06-.95,0-.03,0-.06,0-.08v-.63c0-.1,.03-.19,.08-.28,.36-.62,1.93-3.39,2.58-6.5,0-.02,0-.03,0-.05,.03-.25,.33-2.47,1.99-3.24,0,0,.02,0,.02-.01,.16-.1,2.05-1.3,2.6,2.57,.31,2.14,.1,3.25-.06,3.75-.06,.2-.21,.36-.41,.44-.46,.19-1.38,.58-1.58,.65-.22,.08-2.42,3.36-2.91,4.12-.06,.1-.16,.18-.27,.22Z"/>
  <path class="cls-4" d="M19.91,19.26s1.29,.94,1.29,.89,.75-1.76,.75-1.76l-.56-.3-1.48,1.17Z"/>
  <path d="M4.28,4.39l-.06,.27s0,.08,.03,.11l12.35,11.81s.11,.04,.16,0l.33-.25c.06-.05,.06-.13,0-.18L4.48,4.33c-.07-.06-.18-.03-.2,.06Z"/>
  <path d="M16.07,16.59s-.11-.03-.15,0c-1.35,1.05-13.47,10.52-13.7,11.06-.08,.2-.14,.35-.17,.46-.04,.13,.11,.22,.21,.14l4.46-3.77,9.61-7.51c.07-.06,.07-.16,0-.21l-.26-.18Z"/>
  <ellipse class="cls-1" cx="26.33" cy="5.86" rx=".6" ry="2.12"/>
  <g>
    <path class="cls-2" d="M26.77,27.04s-1.71,.17-2.85-2.06c-.83-1.63-.83-2.08-.87-2.15,0,0,0-.02-.01-.02l-1.08-1.53s-.06-.06-.1-.07c-.29-.05-1.45-.32-1.29-1.14,.02-.11,.16-.17,.25-.1l.46,.3c.09,.06,.2,.02,.24-.07l.69-1.54c.04-.08,0-.17-.07-.22l-.03-.02c-.1-.05-.12-.18-.04-.26h0s.07-.05,.11-.05c.47-.01,3.2-.09,3.66-.1,.04,0,3.47,2.98,3.47,2.98,.02,.02,.03,.04,.04,.06,.2,.47,2.26,5.54-2.58,5.98Z"/>
    <ellipse class="cls-1" cx="26.64" cy="23.2" rx="1.31" ry="2.52" transform="translate(-4.42 6.36) rotate(-12.59)"/>
  </g>
</svg>