<?xml version="1.0" encoding="UTF-8"?>
<svg id="Layer_1" data-name="Layer 1" xmlns="http://www.w3.org/2000/svg" viewBox="0 0 512 512">
  <defs>
    <style>
      .cls-1 {
        stroke-width: 7.31px;
      }

      .cls-1, .cls-2, .cls-3, .cls-4 {
        stroke: #fff;
        stroke-miterlimit: 10;
      }

      .cls-2 {
        stroke-width: 3.88px;
      }

      .cls-3 {
        fill: #fff;
        stroke-width: 4.87px;
      }

      .cls-4 {
        stroke-width: 7.27px;
      }
    </style>
  </defs>
  <path class="cls-1" d="M359.8,218.03c-4.02-8.2-15.26-9.58-21.41-2.83-2.81,3.09-6.45,6.6-11.07,10.27-14.56,11.57-285.83,214.92-291.31,233.56-3.84,13.05,6.83,17.77,13.58,19.43,2.96,.73,6.08,.39,8.83-.93,24.36-11.68,161.73-79.4,261.32-167.93,.18-.16,.37-.32,.56-.47l23.86-18.76c2.62-2.06,4.36-5.03,4.89-8.32,2.28-14.4,8.79-54.6,11.26-59.31,.67-1.28,.37-2.92-.5-4.7Z"/>
  <path class="cls-4" d="M69.66,53.23c12.05-4.3,60.57,2.45,247.67,169.05,2.69,2.4,2.61,6.64-.19,8.92l-35.4,28.81c-2.28,1.86-5.58,1.73-7.72-.28L67.7,65.21c-1.17-1.11-1.84-2.65-1.84-4.26v-2.23c0-2.44,1.5-4.66,3.8-5.49Z"/>
  <path class="cls-1" d="M367.79,229.39c-8.03,2.89-30.03,8.47-33.7-15.57-.07-.45-.1-.92-.1-1.37v-10.26c0-1.61,.43-3.18,1.24-4.56,5.94-10.07,31.56-55.5,42.25-106.31,.06-.27,.1-.55,.13-.82,.47-4.1,5.42-40.46,32.62-52.97,.14-.06,.27-.13,.39-.21,2.7-1.64,33.46-21.26,42.6,42.04,5.04,34.93,1.69,53.18-.96,61.27-1.06,3.24-3.49,5.83-6.63,7.16-7.51,3.17-22.53,9.48-25.85,10.71-3.66,1.35-39.63,55.03-47.53,67.31-1.06,1.65-2.63,2.92-4.48,3.58Z"/>
  <path class="cls-2" d="M320.01,309.35s21.11,15.35,21.11,14.53,12.34-28.78,12.34-28.78l-9.18-4.83-24.27,19.08Z"/>
  <path d="M64.26,66.13l-.91,4.36c-.14,.67,.08,1.36,.57,1.82l202.06,193.11c.7,.67,1.78,.73,2.55,.14l5.4-4.11c.97-.74,1.04-2.17,.15-3L67.53,65.1c-1.12-1.05-2.96-.47-3.27,1.03Z"/>
  <path d="M257.18,265.58c-.77-.52-1.79-.49-2.52,.08-22.09,17.12-220.3,172.07-224.03,180.82-1.37,3.21-2.24,5.69-2.79,7.6-.59,2.06,1.82,3.64,3.46,2.26l73.01-61.61,157.26-122.78c1.16-.9,1.09-2.67-.12-3.49l-4.27-2.88Z"/>
  <ellipse class="cls-3" cx="424.92" cy="90.16" rx="9.87" ry="34.62"/>
  <g>
    <path class="cls-1" d="M432.11,436.57c-.15,.01-27.9,2.73-46.54-33.7-13.61-26.59-13.62-34.04-14.15-35.15-.07-.14-.14-.26-.23-.38l-17.59-24.95c-.41-.58-1.02-.97-1.72-1.1-4.76-.89-23.72-5.28-21.17-18.62,.36-1.88,2.58-2.74,4.17-1.67l7.45,4.99c1.4,.93,3.3,.39,3.99-1.14l11.34-25.17c.59-1.31,.06-2.85-1.21-3.52l-.57-.3c-1.6-.85-1.94-2.99-.68-4.29h0c.49-.51,1.16-.81,1.87-.83,7.61-.22,52.32-1.48,59.79-1.61,.67-.01,56.79,48.66,56.79,48.66,.31,.27,.55,.59,.71,.97,3.28,7.65,36.97,90.64-42.25,97.83Z"/>
    <ellipse class="cls-3" cx="430.09" cy="373.83" rx="21.37" ry="41.26" transform="translate(-71.13 102.71) rotate(-12.59)"/>
  </g>
</svg>