<?xml version="1.0" encoding="UTF-8"?>
<svg id="Layer_1" data-name="Layer 1" xmlns="http://www.w3.org/2000/svg" viewBox="0 0 256 256">
  <defs>
    <style>
      .cls-1 {
        stroke-width: 1.88px;
      }

      .cls-1, .cls-2, .cls-3, .cls-4 {
        stroke: #fff;
        stroke-miterlimit: 10;
      }

      .cls-2 {
        stroke-width: 3.53px;
      }

      .cls-3 {
        fill: #fff;
        stroke-width: 2.36px;
      }

      .cls-4 {
        stroke-width: 3.51px;
      }
    </style>
  </defs>
  <path class="cls-2" d="M178.18,109.65c-1.94-3.96-7.37-4.63-10.35-1.37-1.36,1.49-3.12,3.19-5.35,4.97-7.04,5.59-138.17,103.89-140.82,112.9-1.85,6.31,3.3,8.59,6.56,9.39,1.43,.35,2.94,.19,4.27-.45,11.78-5.64,78.18-38.38,126.32-81.18,.09-.08,.18-.15,.27-.23l11.53-9.07c1.27-1,2.11-2.43,2.36-4.02,1.1-6.96,4.25-26.39,5.44-28.67,.32-.62,.18-1.41-.24-2.27Z"/>
  <path class="cls-4" d="M37.92,29.98c5.83-2.08,29.28,1.18,119.72,81.72,1.3,1.16,1.26,3.21-.09,4.31l-17.11,13.93c-1.1,.9-2.7,.84-3.73-.14L36.98,35.77c-.57-.53-.89-1.28-.89-2.06v-1.08c0-1.18,.72-2.25,1.84-2.65Z"/>
  <path class="cls-2" d="M182.04,115.14c-3.88,1.4-14.52,4.09-16.29-7.53-.03-.22-.05-.44-.05-.66v-4.96c0-.78,.21-1.54,.6-2.21,2.87-4.87,15.26-26.83,20.42-51.39,.03-.13,.05-.26,.06-.4,.23-1.98,2.62-19.56,15.77-25.61,.07-.03,.13-.06,.19-.1,1.3-.79,16.17-10.28,20.59,20.32,2.44,16.88,.82,25.71-.47,29.62-.51,1.57-1.69,2.82-3.2,3.46-3.63,1.53-10.89,4.58-12.5,5.18-1.77,.65-19.15,26.6-22.97,32.54-.51,.8-1.27,1.41-2.16,1.73Z"/>
  <path class="cls-1" d="M158.94,153.79s10.2,7.42,10.2,7.02,5.96-13.91,5.96-13.91l-4.44-2.33-11.73,9.22Z"/>
  <path d="M35.32,36.22l-.44,2.11c-.07,.32,.04,.66,.27,.88l97.67,93.35c.34,.32,.86,.35,1.23,.07l2.61-1.99c.47-.36,.5-1.05,.07-1.45L36.9,35.72c-.54-.51-1.43-.23-1.58,.5Z"/>
  <path d="M128.57,132.63c-.37-.25-.86-.24-1.22,.04-10.68,8.28-106.49,83.18-108.29,87.41-.66,1.55-1.08,2.75-1.35,3.67-.29,1,.88,1.76,1.67,1.09l35.29-29.78,76.02-59.35c.56-.44,.53-1.29-.06-1.69l-2.06-1.39Z"/>
  <ellipse class="cls-3" cx="209.65" cy="47.83" rx="4.77" ry="16.74"/>
  <g>
    <path class="cls-2" d="M213.13,215.29c-.07,0-13.49,1.32-22.5-16.29-6.58-12.85-6.58-16.45-6.84-16.99-.03-.07-.07-.13-.11-.19l-8.51-12.06c-.2-.28-.49-.47-.83-.53-2.3-.43-11.46-2.55-10.23-9,.17-.91,1.24-1.32,2.01-.81l3.6,2.41c.68,.45,1.59,.19,1.93-.55l5.48-12.17c.28-.63,.03-1.38-.58-1.7l-.28-.15c-.77-.41-.94-1.45-.33-2.08h0c.24-.25,.56-.39,.9-.4,3.68-.1,25.29-.72,28.9-.78,.33,0,27.45,23.52,27.45,23.52,.15,.13,.26,.29,.34,.47,1.59,3.7,17.87,43.81-20.42,47.29Z"/>
    <ellipse class="cls-3" cx="212.15" cy="184.96" rx="10.33" ry="19.94" transform="translate(-35.21 50.68) rotate(-12.59)"/>
  </g>
</svg>